<svg id="Layer_1" enable-background="new 0 0 512.063 512.063" height="512" viewBox="0 0 512.063 512.063" width="512" xmlns="http://www.w3.org/2000/svg"><g><path d="m496.032 64.018v336c0 17.65-14.35 32-32 32h-416c-17.65 0-32-14.35-32-32v-336c0-17.65 14.35-32 32-32h416c17.65 0 32 14.35 32 32z" fill="#e2e0e0"/><path d="m496.032 64.018v336c0 17.65-14.35 32-32 32h-48c17.65 0 32-14.35 32-32v-336c0-17.65-14.35-32-32-32h48c17.65 0 32 14.35 32 32z" fill="#cecccc"/><path d="m496.032 64.018v56c0 4.42-3.58 8-8 8h-464c-4.42 0-8-3.58-8-8v-56c0-17.65 14.35-32 32-32h416c17.65 0 32 14.35 32 32z" fill="#f79caf"/><path d="m496.032 64.018v56c0 4.42-3.58 8-8 8h-48c4.42 0 8-3.58 8-8v-56c0-17.65-14.35-32-32-32h48c17.65 0 32 14.35 32 32z" fill="#e3889b"/><path d="m136.032 24.018v40c0 13.23-10.77 24-24 24s-24-10.77-24-24v-40c0-13.23 10.77-24 24-24s24 10.77 24 24z" fill="#f3d4b7"/><path d="m136.032 24.018v40c0 18.576-20.252 29.96-36 20.77 7.17-4.15 12-11.91 12-20.77v-40c0-8.86-4.83-16.62-12-20.77 15.754-9.194 36 2.199 36 20.77z" fill="#e1c3a7"/><path d="m424.032 24.018v40c0 13.23-10.77 24-24 24s-24-10.77-24-24v-40c0-13.23 10.77-24 24-24s24 10.77 24 24z" fill="#f3d4b7"/><path d="m424.032 24.018v40c0 18.576-20.252 29.96-36 20.77 7.17-4.15 12-11.91 12-20.77v-40c0-8.86-4.83-16.62-12-20.77 15.754-9.194 36 2.199 36 20.77z" fill="#e1c3a7"/><path d="m384.032 304.018c0 124.549.456 117.387-1.34 128h-189.33c-1.797-10.698-1.33-4.939-1.33-128 0-52.93 43.07-96 96-96s96 43.07 96 96z" fill="#cecccc"/><path d="m352.032 304.018v112c0 18.65-5.36 36.74-15.5 52.31-33.343 51.261-105.283 58.667-148.38 15.57-18.13-18.13-28.12-42.23-28.12-67.88v-112c0-4.42 3.58-8 8-8h176c4.419 0 8 3.58 8 8z" fill="#acebe2"/><g fill="#98d7ce"><path d="m352.032 304.018v112c0 58.473-52.392 104.705-112.09 94.67 46.981-7.857 80.09-48.493 80.09-94.67v-112c0-4.42-3.58-8-8-8h32c4.419 0 8 3.58 8 8z"/><path d="m248.57 453.802c-1.593-4.121.457-8.753 4.578-10.346 68.504-26.479 82.884-90.442 82.884-139.438 0-4.418 3.582-8 8-8s8 3.582 8 8c0 69.984-27.295 128.921-93.116 154.362-4.106 1.587-8.748-.441-10.346-4.578z"/><path d="m329.674 471.956c-147.604-2.899-169.643-106.463-169.643-167.938 0-4.418 3.582-8 8-8s8 3.582 8 8c0 67.936 26.71 149.442 153.957 151.942 4.417.086 7.928 3.737 7.841 8.155-.085 4.374-3.687 7.922-8.155 7.841z"/></g><circle cx="256.032" cy="304.018" fill="#f8e9d2" r="96"/><path d="m352.032 304.018c0 59.285-53.489 104.561-112 94.66 45.34-7.64 80-47.18 80-94.66s-34.66-87.02-80-94.66c58.466-9.893 112 35.332 112 94.66z" fill="#e4d5c1"/><path d="m256.032 280.018c-22.648 0-34.9-18.876-31.833-33.628 3.614-17.384 19.787-30.372 31.833-30.372 4.418 0 8 3.582 8 8s-3.582 8-8 8c-3.711 0-13.925 6.842-16.167 17.628-.435 2.092.406 5.784 2.854 8.793 2.07 2.545 6.061 5.579 13.314 5.579 12.812 0 8.528-7.479 5.47-8.41-4.191-1.397-6.457-5.928-5.059-10.12 1.398-4.191 5.926-6.454 10.12-5.06 20.155 6.739 20.558 39.59-10.532 39.59z" fill="#b59f89"/><path d="m224.032 312.018c-4.418 0-8-3.582-8-8v-8c0-4.418 3.582-8 8-8s8 3.582 8 8v8c0 4.418-3.582 8-8 8z" fill="#a18b76"/><path d="m288.032 312.018c-4.418 0-8-3.582-8-8v-8c0-4.418 3.582-8 8-8s8 3.582 8 8v8c0 4.418-3.583 8-8 8z" fill="#a18b76"/><path d="m233.404 350.646c-3.124-3.124-3.125-8.189 0-11.313 3.125-3.125 8.19-3.124 11.314-.001 6.238 6.239 16.389 6.237 22.628 0 3.124-3.123 8.189-3.123 11.313.001s3.124 8.189-.001 11.313c-12.473 12.473-32.775 12.477-45.254 0z" fill="#f79caf"/></g></svg>