<svg id="Capa_1" enable-background="new 0 0 511.916 511.916" height="512" viewBox="0 0 511.916 511.916" width="512" xmlns="http://www.w3.org/2000/svg"><g><g><path d="m195.259 429.651c-2.38 0-4.728-1.096-6.241-3.165-10.272-14.043-24.883-25.162-39.015-35.916-19.18-14.596-37.297-28.383-44.025-48.566-5.83-17.491-3.024-36.934 8.115-56.225 8.132-14.084 17.874-23.207 18.285-23.589 3.127-2.906 8.015-2.723 10.918.402 2.901 3.123 2.723 8.005-.393 10.909-.331.311-33.018 31.365-22.267 63.616 5.22 15.661 21.494 28.047 38.724 41.158 15.01 11.423 30.53 23.234 42.129 39.089 2.519 3.443 1.769 8.276-1.675 10.796-1.376 1.006-2.972 1.491-4.555 1.491z" fill="#365e7d"/></g><g><path d="m263.016 170.194c-3.408 0-6.524-2.269-7.45-5.717-.158-.591-3.861-14.651-2.017-30.644 2.593-22.486 14.588-37.787 34.688-44.246 21.554-6.926 36.456-.255 49.604 5.63 13.645 6.108 25.426 11.382 45.365 3.078 3.939-1.64 8.461.223 10.102 4.161 1.64 3.939-.223 8.461-4.161 10.102-26.098 10.87-42.843 3.374-57.618-3.239-12.151-5.44-22.646-10.139-38.563-5.022-34 10.926-22.959 54.347-22.473 56.19 1.088 4.119-1.362 8.349-5.479 9.445-.668.177-1.339.262-1.998.262z" fill="#365e7d"/></g><g><path d="m1.82 5.327 114.03 193.195c40.186 68.084 105.935 117.265 182.597 136.584l57.139 14.399c1.732.436 3.517-.489 4.159-2.156l36.363-94.446c.798-2.072-.489-4.376-2.678-4.746-165.802-28.025-247.51-222.888-256.629-245.932-.534-1.347-1.833-2.225-3.281-2.225h-128.658c-2.734 0-4.432 2.973-3.042 5.327z" fill="#ffddce"/></g><path d="m133.52 0h-128.658c-2.734 0-4.432 2.973-3.042 5.327l1.401 2.374 76.828 2.121c22.108.61 41.901 13.781 51.078 33.904 24.785 54.345 84.543 161.385 186.353 206.278 28.986 12.782 42.674 46.157 30.48 75.395l-8.372 20.075 15.998 4.032c1.732.436 3.517-.489 4.159-2.156l36.363-94.446c.798-2.072-.488-4.376-2.678-4.746-165.802-28.026-247.51-222.888-256.629-245.933-.533-1.347-1.832-2.225-3.281-2.225z" fill="#ffcbbe"/><path d="m115.798 192.987 86.98-63.525c13.445-9.82 32.093-8.107 43.512 4.009 10.203 10.825 24.231 23.914 41.158 35.208 16.713 11.151 19.656 34.532 6.252 49.499l-76.034 84.897c-11.029 12.314-29.489 14.627-43.143 5.308-19.987-13.642-47.816-37.183-67.953-72.366-8.347-14.581-4.34-33.121 9.228-43.03z" fill="#407093"/><path d="m287.448 168.679c-16.927-11.294-30.956-24.383-41.158-35.208-11.419-12.116-30.067-13.829-43.512-4.009l-11.423 8.342c11.426-1.08 23.139 2.993 31.508 11.9 11.844 12.606 28.13 27.849 47.781 41.001 11.856 7.935 17.73 21.188 16.966 34.273l6.09-6.8c13.404-14.966 10.461-38.347-6.252-49.499z" fill="#365e7d"/><path d="m227.535 430.948-23.241 23.313-20.026-19.964c-3.104-3.095-3.112-8.119-.017-11.223l12.035-12.072c3.095-3.104 8.119-3.112 11.223-.017z" fill="#407093"/><path d="m228.214 430.267-24.598 24.674c-5.196 5.212-5.183 13.649.029 18.845l29.248 29.159c12.025 11.988 31.493 11.958 43.481-.067 11.988-12.025 11.958-31.493-.067-43.481l-29.248-29.159c-5.212-5.196-13.649-5.183-18.845.029z" fill="#dd636e"/><path d="m276.307 459.396-29.248-29.158c-5.212-5.196-13.649-5.183-18.845.029l-6.954 6.976c3.854-.405 7.851.861 10.809 3.81l29.248 29.158c10.969 10.935 11.952 28.089 2.944 40.145 4.43-1.462 8.595-3.95 12.113-7.479 11.989-12.025 11.959-31.492-.067-43.481z" fill="#da4a54"/><circle cx="438.808" cy="71.784" fill="#bed8fb" r="71.784"/><path d="m438.808 0c-3.813 0-7.554.303-11.206.876 34.321 5.381 60.578 35.075 60.578 70.907s-26.256 65.526-60.578 70.908c3.652.573 7.393.876 11.206.876 39.645 0 71.784-32.139 71.784-71.784s-32.139-71.783-71.784-71.783z" fill="#9dc6fb"/><g><path d="m438.809 79.509c-4.267 0-7.725-3.458-7.725-7.725v-47.951c0-4.267 3.458-7.725 7.725-7.725s7.725 3.458 7.725 7.725v47.951c0 4.266-3.459 7.725-7.725 7.725z" fill="#365e7d"/></g><g><path d="m447.354 79.509h-17.092c-4.267 0-7.725-3.458-7.725-7.725s3.458-7.725 7.725-7.725h17.092c4.267 0 7.725 3.458 7.725 7.725s-3.458 7.725-7.725 7.725z" fill="#9dc6fb"/></g><g><path d="m163.301 222.155c-2.303 0-4.583-1.026-6.106-2.986-2.617-3.369-2.008-8.222 1.362-10.839l50.584-39.295c3.367-2.616 8.221-2.009 10.839 1.362 2.617 3.369 2.008 8.222-1.362 10.839l-50.584 39.295c-1.407 1.094-3.076 1.624-4.733 1.624z" fill="#365e7d"/></g></g></svg>