<svg height="474pt" viewBox="-66 0 474 474.89957" width="474pt" xmlns="http://www.w3.org/2000/svg"><path d="m257.675781 257.566406h-99.386719c-2.464843 0-4.902343.128906-7.308593.34375-10.023438.34375-18.292969 5.59375-18.292969 5.59375-4.921875 2.511719-11.375 7.019532-18.15625 15.109375l-6.175781 8.414063-22.6875 35.238281c-7.898438 12.273437-12.039063 26.027344-12.039063 40.007813 0 14.199218 4.273438 28.167968 12.410156 40.574218l8.335938 12.707032 23.015625 55.34375h181.773437l23.839844-66 6.667969-33.335938v-42c.003906-39.761719-32.230469-71.996094-71.996094-71.996094zm0 0" fill="#6bdddd"/><path d="m203.425781 286.898438h-26.417969c-13.253906 0-24-10.746094-24-24v-64.332032h84v54.746094c0 18.550781-15.035156 33.585938-33.582031 33.585938zm0 0" fill="#f9cfcf"/><path d="m167.773438 257.566406h-9.484376c-2.464843 0-4.902343.128906-7.308593.34375-10.023438.34375-18.292969 5.59375-18.292969 5.59375-4.921875 2.511719-11.375 7.019532-18.15625 15.109375l-6.175781 8.414063-22.6875 35.238281c-7.898438 12.273437-12.039063 26.027344-12.039063 40.007813 0 14.199218 4.273438 28.167968 12.410156 40.574218l8.335938 12.707032 3.523438 8.472656 88.605468-17.628906v-119.5zm0 0" fill="#f9cfcf"/><path d="m186.507812 286.898438 12.097657 6.34375c3.03125 1.589843 4.714843 4.929687 4.1875 8.3125l-16.285157 104.84375zm0 0" fill="#e0ebfc"/><path d="m299.164062 474.898438h-181.769531c-1.617187 0-3.074219-.972657-3.695312-2.460938l-22.871094-55-8.128906-12.390625c-8.546875-13.035156-13.066407-27.824219-13.066407-42.773437 0-14.707032 4.382813-29.292969 12.675782-42.167969l22.6875-35.238281c.042968-.070313.089844-.136719.136718-.203126l6.179688-8.417968c.046875-.070313.101562-.136719.15625-.203125 5.980469-7.132813 12.457031-12.527344 19.257812-16.027344 1.273438-.777344 8.847657-5.175781 18.285157-5.992187v-55.460938c0-2.207031 1.789062-4 4-4h84c2.207031 0 4 1.792969 4 4v54.75c0 .082031 0 .167969-.003907.25h16.667969c41.90625 0 76 34.09375 76 76v42c0 .265625-.023437.527344-.078125.785156l-6.667968 33.332032c-.039063.199218-.089844.390624-.160157.578124l-23.839843 66c-.574219 1.585938-2.078126 2.640626-3.765626 2.640626zm-179.101562-8h176.292969l22.789062-63.078126 6.53125-32.652343v-41.601563c0-37.496094-30.503906-68-68-68h-20.964843c-1.148438 0-2.242188-.496094-3.003907-1.355468-.757812-.863282-1.109375-2.007813-.964843-3.152344.183593-1.425782.269531-2.617188.269531-3.746094v-50.746094h-76v55.199219c0 2.105469-1.628907 3.851563-3.730469 3.992187l-.625.042969c-.441406.027344-.878906.054688-1.316406.09375-.070313.003907-.144532.007813-.21875.011719-8.75.300781-16.214844 4.929688-16.289063 4.980469-.101562.0625-.214843.125-.320312.179687-5.859375 2.992188-11.519531 7.707032-16.824219 14.015625l-6.027344 8.214844-22.625 35.136719c-7.457031 11.582031-11.402344 24.667968-11.402344 37.839844 0 13.382812 4.066407 26.65625 11.757813 38.382812l8.335937 12.703125c.132813.207031.253907.429687.347657.65625zm209.613281-95.332032h.019531zm0 0" fill="#3762cc"/><path d="m295.59375 417.554688c-8.757812 29.601562-39.855469 46.5-69.457031 37.742187l-80.136719-23.710937c-29.601562-8.757813-46.5-39.851563-37.742188-69.453126 8.757813-29.601562 39.855469-46.5 69.457032-37.742187l80.136718 23.707031c29.601563 8.757813 46.5 39.855469 37.742188 69.457032zm0 0" fill="#a4c9ff"/><path d="m242.078125 461.617188c-5.710937 0-11.449219-.824219-17.074219-2.488282l-80.136718-23.707031c-15.34375-4.539063-27.996094-14.78125-35.632813-28.839844-7.640625-14.054687-9.347656-30.246093-4.808594-45.585937 4.539063-15.34375 14.78125-28 28.839844-35.636719 14.058594-7.640625 30.25-9.34375 45.585937-4.808594l80.136719 23.707031c31.667969 9.375 49.808594 42.757813 40.441407 74.429688-4.539063 15.339844-14.777344 28-28.835938 35.632812-8.902344 4.839844-18.664062 7.296876-28.515625 7.296876zm-80.195313-135.53125c-22.398437 0-43.117187 14.632812-49.785156 37.175781-3.933594 13.292969-2.457031 27.320312 4.164063 39.5 6.617187 12.183593 17.582031 21.054687 30.875 24.988281l80.136719 23.707031c27.453124 8.121094 56.367187-7.601562 64.484374-35.039062 8.117188-27.441407-7.601562-56.367188-35.042968-64.488281l-80.132813-23.707032c-4.894531-1.449218-9.835937-2.136718-14.699219-2.136718zm0 0" fill="#3762cc"/><path d="m74.027344 66.671875 179.902344-15.738281 15.945312 182.253906-141.457031 12.375c-21.234375 1.859375-39.953125-13.847656-41.808594-35.078125zm0 0" fill="#4671c6"/><path d="m124.980469 249.714844c-9.988281 0-19.5625-3.472656-27.304688-9.96875-8.714843-7.308594-14.0625-17.582032-15.050781-28.914063l-12.582031-143.808593c-.09375-1.058594.238281-2.109376.917969-2.921876.683593-.8125 1.660156-1.320312 2.71875-1.414062l179.902343-15.738281c2.210938-.210938 4.136719 1.4375 4.332031 3.632812l15.945313 182.253907c.09375 1.058593-.238281 2.109374-.921875 2.921874-.679688.8125-1.65625 1.320313-2.714844 1.414063l-141.457031 12.375c-1.269531.113281-2.53125.167969-3.785156.167969zm-46.621094-179.40625 12.234375 139.828125c.804688 9.203125 5.144531 17.542969 12.222656 23.484375 7.078125 5.9375 16.035156 8.765625 25.25 7.960937l137.472656-12.027343-15.25-174.289063zm0 0" fill="#3762cc"/><path d="m333.589844 394.695312 5.195312-56.214843.730469-16.945313c.847656-19.6875-13.738281-37.109375-33.378906-38.652344-20.617188-1.625-38.300781 14.167969-39.183594 34.65625l-2.023437 46.953126-.34375 7.992187-.105469 2.460937c-.085938 2.019532-1.664063 3.652344-3.679688 3.8125l-112.792969 8.921876-2.257812 52.410156 157.253906-.742188c13.855469-.0625 25.582032-10.253906 27.578125-23.964844zm0 0" fill="#f9cfcf"/><path d="m183.746094 250.375c-50.753906 4.441406-95.496094-33.101562-99.933594-83.851562l-3.574219-40.84375c-4.441406-50.753907 33.101563-95.492188 83.851563-99.933594 50.753906-4.441406 95.496094 33.101562 99.933594 83.851562l3.574218 40.84375c4.441406 50.753906-33.101562 95.496094-83.851562 99.933594zm0 0" fill="#f9cfcf"/><g fill="#3762cc"><path d="m191.5625 182.09375c-3.851562.335938-7.246094-2.511719-7.582031-6.363281l-1.222657-13.945313c-.335937-3.851562 2.511719-7.246094 6.363282-7.582031 3.855468-.335937 7.246094 2.511719 7.585937 6.363281l1.21875 13.945313c.335938 3.851562-2.511719 7.246093-6.363281 7.582031zm0 0"/><path d="m119.5625 190.09375c-3.851562.335938-7.246094-2.511719-7.582031-6.363281l-1.222657-13.945313c-.335937-3.851562 2.511719-7.246094 6.363282-7.582031 3.855468-.335937 7.246094 2.511719 7.585937 6.363281l1.21875 13.945313c.335938 3.851562-2.511719 7.246093-6.363281 7.582031zm0 0"/><path d="m158.589844 226.648438c-3.574219 0-6.96875-.648438-9.757813-1.882813-4.1875-1.855469-6.769531-4.980469-7.082031-8.574219-.195312-2.203125 1.433594-4.140625 3.632812-4.332031 2.210938-.207031 4.140626 1.433594 4.332032 3.632813.035156.382812.691406 1.21875 2.359375 1.960937 2.214843.980469 5.292969 1.378906 8.445312 1.113281 6.5-.570312 10.207031-3.683594 10.101563-4.902344-.195313-2.199218 1.4375-4.136718 3.636718-4.332031 2.203126-.195312 4.140626 1.433594 4.332032 3.636719.59375 6.816406-6.875 12.648438-17.378906 13.566406-.878907.078125-1.757813.113282-2.621094.113282zm0 0"/><path d="m175.632812 254.730469c-49.3125 0-91.429687-37.828125-95.804687-87.859375l-3.574219-40.84375c-2.242187-25.609375 5.625-50.558594 22.152344-70.253906 16.523438-19.695313 39.726562-31.773438 65.339844-34.015626 52.867187-4.640624 99.636718 34.625 104.265625 87.492188l3.574219 40.84375c2.242187 25.609375-5.628907 50.558594-22.152344 70.253906-16.523438 19.695313-39.726563 31.773438-65.335938 34.015625-2.839844.246094-5.667968.367188-8.464844.367188zm-3.4375-225.339844c-2.566406 0-5.152343.109375-7.753906.335937-23.484375 2.054688-44.757812 13.132813-59.910156 31.1875-15.152344 18.058594-22.363281 40.933594-20.308594 64.414063l3.570313 40.84375c4.242187 48.472656 47.136719 84.464844 95.605469 80.21875 23.480468-2.054687 44.757812-13.132813 59.910156-31.1875 15.148437-18.058594 22.363281-40.933594 20.304687-64.414063l-3.570312-40.84375c-4.015625-45.867187-42.636719-80.554687-87.847657-80.554687zm0 0"/></g><path d="m139.863281 140.023438-70.164062 6.136718c-4.367188.382813-8.21875-2.847656-8.601563-7.214844l-3.894531-44.5c-3.628906-41.488281 27.0625-78.0625 68.550781-81.691406l25.796875-2.257812c14.695313-1.285156 27.652344 9.582031 28.9375 24.28125l4.5 51.464844c2.390625 27.3125-17.8125 51.390624-45.125 53.78125zm0 0" fill="#4671c6"/><path d="m326.011719 175.164062c-.140625-1.5-.378907-2.988281-.710938-4.453124l-25.363281-111.746094c-5.175781-22.816406-21.730469-41.324219-43.273438-50.257813-1.164062-.484375-2.363281-.898437-3.574218-1.238281-21.292969-6-43.796875-2.851562-53.507813-.960938-4.242187.828126-8.324219 2.394532-11.921875 4.785157-11.519531 7.660156-18.601562 21.203125-17.3125 35.957031l1.332032 15.242188c2.335937 26.675781 19.164062 48.589843 42.046874 58.6875 11.460938 5.058593 19.261719 15.957031 20.421876 28.429687l6.375 68.402344c.921874 9.890625 10.210937 17.207031 20.742187 16.34375l12.78125-1.050781c31.453125-2.585938 54.71875-28.613282 51.964844-58.140626zm0 0" fill="#4671c6"/><path d="m259.589844 238.421875c-11.851563 0-21.984375-8.628906-23.046875-20.039063l-6.375-68.402343c-1.03125-11.046875-7.949219-20.679688-18.058594-25.140625-9.648437-4.257813-18.285156-10.515625-25.339844-18.3125-6.34375 20.589844-24.464843 35.546875-46.554687 37.480468l-70.167969 6.136719c-6.585937.582031-12.359375-4.296875-12.933594-10.847656l-3.890625-44.5c-3.816406-43.621094 28.566406-82.210937 72.183594-86.023437l25.796875-2.261719c9.523437-.835938 18.726563 2.785156 25.109375 9.628906 2.636719-3.152344 5.695312-5.890625 9.132812-8.175781 3.917969-2.605469 8.414063-4.414063 13.375-5.378906 9.183594-1.792969 32.964844-5.273438 55.355469 1.035156 1.371094.382812 2.726563.855468 4.023438 1.394531 23.222656 9.628906 40.289062 29.46875 45.644531 53.066406l25.359375 111.746094c.375 1.644531.640625 3.316406.792969 4.96875 1.375 14.730469-3.222656 29.21875-12.945313 40.8125-10.558593 12.589844-25.710937 20.289063-42.671875 21.683594l-12.777344 1.046875c-.675781.054687-1.347656.082031-2.011718.082031zm-74.910156-144.839844c1.269531 0 2.484374.605469 3.25 1.664063 6.996093 9.742187 16.472656 17.445312 27.410156 22.269531 12.761718 5.628906 21.496094 17.785156 22.792968 31.71875l6.375 68.402344c.71875 7.703125 8.109376 13.40625 16.433594 12.726562l12.78125-1.050781c14.8125-1.214844 28.023438-7.910156 37.199219-18.851562 8.335937-9.941407 12.28125-22.34375 11.109375-34.929688-.121094-1.3125-.332031-2.636719-.625-3.941406l-25.363281-111.742188c-4.785157-21.070312-20.078125-38.808594-40.910157-47.449218-1.007812-.421876-2.058593-.785157-3.125-1.085938-20.734374-5.839844-43.03125-2.5625-51.65625-.882812-3.914062.765624-7.4375 2.175781-10.472656 4.191406-4.042968 2.691406-7.449218 6.15625-10.109375 10.300781-.738281 1.144531-2.003906 1.835937-3.367187 1.835937h-.003906c-1.367188 0-2.632813-.695312-3.367188-1.847656-4.582031-7.175781-12.691406-11.167968-21.125-10.433594l-25.800781 2.257813c-39.226563 3.433594-68.34375 38.136719-64.914063 77.363281l3.890625 44.5c.191407 2.160156 2.050781 3.753906 4.269531 3.578125l70.164063-6.136719c21.261719-1.863281 38.207031-17.90625 41.203125-39.015624.230469-1.621094 1.417969-2.933594 3.007812-3.324219.316407-.078125.636719-.117188.953126-.117188zm0 0" fill="#3762cc"/><path d="m261.007812 164.148438c0 13.257812-10.746093 24-24 24-13.253906 0-24-10.742188-24-24 0-13.253907 10.746094-24 24-24 13.253907 0 24 10.746093 24 24zm0 0" fill="#f9cfcf"/><path d="m132.335938 365.675781c-22.660157 23.609375-60.164063 24.375-83.773438 1.714844l-2.8125-2.699219c-23.609375-22.660156-24.378906-60.164062-1.71875-83.773437s60.167969-24.375 83.777344-1.714844l2.8125 2.699219c23.609375 22.65625 24.375 60.164062 1.714844 83.773437zm0 0" fill="#f9cfcf"/><path d="m89.558594 387.894531c-16.398438 0-31.894532-6.226562-43.765625-17.617187l-2.8125-2.703125c-12.191407-11.699219-19.09375-27.445313-19.4375-44.335938-.347657-16.890625 5.902343-32.90625 17.605469-45.09375 24.148437-25.164062 64.269531-25.980469 89.429687-1.832031l2.8125 2.699219c12.191406 11.703125 19.09375 27.445312 19.441406 44.335937.34375 16.890625-5.90625 32.90625-17.609375 45.097656-11.699218 12.1875-27.441406 19.089844-44.335937 19.4375-.441407.011719-.886719.011719-1.328125.011719zm-2.769532-121.171875c-14.53125 0-29.039062 5.679688-39.871093 16.964844-10.21875 10.644531-15.679688 24.632812-15.378907 39.390625.304688 14.753906 6.332032 28.507813 16.980469 38.726563l2.8125 2.703124c10.648438 10.21875 24.746094 15.679688 39.390625 15.378907 14.757813-.304688 28.507813-6.335938 38.726563-16.980469 10.21875-10.648438 15.679687-24.636719 15.378906-39.390625s-6.332031-28.507813-16.980469-38.726563l-2.8125-2.703124c-10.691406-10.265626-24.476562-15.363282-38.246094-15.363282zm0 0" fill="#3762cc"/><path d="m145.75 444.089844c-1.089844 0-2.128906-.441406-2.882812-1.222656-.757813-.789063-1.160157-1.855469-1.113282-2.949219l2.253906-52.410157c.085938-2.019531 1.667969-3.652343 3.679688-3.8125l112.796875-8.921874 2.46875-57.410157c.476563-11.035156 5.292969-21.144531 13.566406-28.46875 8.269531-7.320312 18.90625-10.871093 29.929688-10.003906 21.378906 1.683594 38.003906 20.890625 37.058593 42.8125l-.726562 16.949219-5.210938 56.410156c-.003906.070312-.011718.140625-.023437.210938l-3.011719 20.6875c-2.296875 15.792968-15.550781 27.316406-31.515625 27.386718l-157.253906.742188c-.003906 0-.011719 0-.015625 0zm6.097656-52.699219-1.921875 44.679687 153.058594-.71875c11.96875-.054687 21.910156-8.695312 23.632813-20.542968l2.996093-20.582032 5.1875-56.113281.714844-16.75c.761719-17.667969-12.558594-33.144531-29.695313-34.492187-8.84375-.695313-17.375 2.152344-24 8.019531-6.628906 5.867187-10.492187 13.976563-10.875 22.820313l-2.46875 57.410156c-.179687 4.03125-3.34375 7.3125-7.367187 7.628906zm181.742188 3.304687h.019531zm0 0" fill="#3762cc"/><path d="m237.660156 449.882812c7.867188-2.011718 9.007813-10.25 9.011719-10.265624l2.066406-25.660157c-.40625-9.59375-9.519531-14.105469-9.546875-14.117187l-17.824218-7.863282c-2.335938-1.03125-4.886719-1.488281-7.4375-1.332031l-30.433594 1.859375-142.027344-35.507812c-10.835938-2.707032-22.082031 1.902344-28.835938 11.820312l-3.722656 5.46875c-4.851562 7.125-5.824218 16.683594-2.523437 24.859375l3.746093 9.28125c4.1875 10.371094 12.929688 17.46875 22.984376 18.667969l143.984374 17.152344 22.570313 11.308594c3.445313 1.726562 7.398437 2.152343 11.132813 1.195312zm0 0" fill="#f9cfcf"/><path d="m206.839844 461.25c-3.085938 0-6.15625-.710938-8.957032-2.117188l-21.949218-10.996093-143.289063-17.070313c-11.460937-1.367187-21.507812-9.46875-26.21875-21.144531l-3.75-9.28125c-3.800781-9.417969-2.67968725-20.378906 2.925781-28.605469l3.722657-5.46875c7.683593-11.277344 20.683593-16.554687 33.117187-13.449218l141.425782 35.355468 29.820312-1.824218c3.164062-.191407 6.386719.382812 9.292969 1.667968l17.824219 7.863282c.625.308593 11.429687 5.816406 11.929687 17.609374.007813.164063.003906.328126-.011719.488282l-2.066406 25.664062c-.488281 3.953125-3.605469 11.667969-12.003906 13.816406l-26.855469 6.871094c-1.632813.414063-3.296875.621094-4.957031.621094zm-171.492188-101.007812c-7.460937 0-14.714844 3.933593-19.410156 10.828124l-3.722656 5.46875c-4.121094 6.046876-4.933594 14.136719-2.121094 21.109376l3.75 9.28125c3.621094 8.96875 11.1875 15.175781 19.746094 16.195312l143.984375 17.152344c.457031.054687.90625.1875 1.316406.394531l22.570313 11.308594c2.585937 1.292969 5.546874 1.609375 8.355468.898437l26.851563-6.871094c4.800781-1.226562 5.886719-6.117187 6.027343-6.875l2.035157-25.234374c-.433594-6.894532-7.046875-10.335938-7.328125-10.480469l-17.648438-7.78125c-1.746094-.769531-3.675781-1.113281-5.578125-1l-30.433593 1.859375c-.40625.027344-.816407-.011719-1.214844-.109375l-142.023438-35.503907c-1.710937-.429687-3.4375-.640624-5.15625-.640624zm202.3125 89.640624h.019532zm0 0" fill="#3762cc"/></svg>