<svg id="Layer_1" enable-background="new 0 0 256 256" height="512" viewBox="0 0 256 256" width="512" xmlns="http://www.w3.org/2000/svg"><circle cx="128" cy="128" fill="#6bdddd" r="120"/><circle cx="128" cy="128" fill="#e0ebfc" r="92.25"/><path d="m128 250c-67.271 0-122-54.729-122-122s54.729-122 122-122 122 54.729 122 122-54.729 122-122 122zm0-240c-65.065 0-118 52.935-118 118s52.935 118 118 118 118-52.935 118-118-52.935-118-118-118z" fill="#3762cc"/><path d="m128 222.25c-51.97 0-94.25-42.28-94.25-94.25s42.28-94.25 94.25-94.25 94.25 42.28 94.25 94.25-42.28 94.25-94.25 94.25zm0-184.5c-49.764 0-90.25 40.486-90.25 90.25s40.486 90.25 90.25 90.25 90.25-40.486 90.25-90.25-40.486-90.25-90.25-90.25z" fill="#3762cc"/><path d="m210.904 132h-22c-2.209 0-4-1.791-4-4s1.791-4 4-4h22c2.209 0 4 1.791 4 4s-1.791 4-4 4z" fill="#4671c6"/><path d="m67.096 132h-22c-2.209 0-4-1.791-4-4s1.791-4 4-4h22c2.209 0 4 1.791 4 4s-1.791 4-4 4z" fill="#4671c6"/><path d="m128 214.904c-2.209 0-4-1.791-4-4v-22c0-2.209 1.791-4 4-4s4 1.791 4 4v22c0 2.209-1.791 4-4 4z" fill="#4671c6"/><path d="m128 71.096c-2.209 0-4-1.791-4-4v-22c0-2.209 1.791-4 4-4s4 1.791 4 4v22c0 2.209-1.791 4-4 4z" fill="#4671c6"/><path d="m99.718 152.747 26.645-26.645c1.519-1.519 3.983-1.519 5.502 0s1.519 3.983 0 5.502l-26.645 26.645c-1.519 1.519-3.983 1.519-5.502 0s-1.52-3.983 0-5.502z" fill="#f9a7a7"/><path d="m128.338 132.796c-2.577 0-4.667-2.089-4.667-4.667v-45.197c0-2.577 2.09-4.667 4.667-4.667s4.667 2.089 4.667 4.667v45.197c0 2.578-2.09 4.667-4.667 4.667z" fill="#4671c6"/><g fill="#a4c9ff"><path d="m169.952 200.663c-1.53.884-3.488.359-4.371-1.171l-8.8-15.242c-.884-1.53-.359-3.488 1.171-4.371s3.488-.359 4.371 1.171l8.8 15.242c.884 1.53.36 3.488-1.171 4.371z"/><path d="m98.048 76.121c-1.53.884-3.488.359-4.371-1.171l-8.8-15.242c-.884-1.53-.359-3.488 1.171-4.371 1.53-.884 3.488-.359 4.371 1.171l8.8 15.242c.884 1.53.359 3.488-1.171 4.371z"/><path d="m200.663 169.952c-.884 1.53-2.841 2.055-4.371 1.171l-15.242-8.8c-1.53-.884-2.055-2.841-1.171-4.371s2.841-2.055 4.371-1.171l15.242 8.8c1.53.884 2.055 2.841 1.171 4.371z"/><path d="m76.121 98.048c-.884 1.53-2.841 2.055-4.371 1.171l-15.242-8.8c-1.53-.884-2.055-2.841-1.171-4.371s2.841-2.055 4.371-1.171l15.242 8.8c1.531.883 2.055 2.84 1.171 4.371z"/><path d="m55.337 169.952c-.884-1.53-.359-3.488 1.171-4.371l15.242-8.8c1.53-.884 3.488-.359 4.371 1.171.884 1.53.359 3.488-1.171 4.371l-15.242 8.8c-1.53.884-3.488.36-4.371-1.171z"/><path d="m179.879 98.048c-.884-1.53-.359-3.488 1.171-4.371l15.242-8.8c1.53-.884 3.488-.359 4.371 1.171.884 1.53.359 3.488-1.171 4.371l-15.242 8.8c-1.53.884-3.488.359-4.371-1.171z"/><path d="m86.048 200.663c-1.53-.884-2.055-2.841-1.171-4.371l8.8-15.242c.884-1.53 2.841-2.055 4.371-1.171s2.055 2.841 1.171 4.371l-8.8 15.242c-.884 1.53-2.841 2.055-4.371 1.171z"/><path d="m157.952 76.121c-1.53-.884-2.055-2.841-1.171-4.371l8.8-15.242c.884-1.53 2.841-2.055 4.371-1.171s2.055 2.841 1.171 4.371l-8.8 15.242c-.883 1.531-2.84 2.055-4.371 1.171z"/></g></svg>