<svg id="Capa_1" enable-background="new 0 0 512 512" height="512" viewBox="0 0 512 512" width="512" xmlns="http://www.w3.org/2000/svg"><path d="m447 512h-320.095c-2.209 0-4-1.791-4-4v-416.435c0-2.209 1.791-4 4-4h320.095c2.209 0 4 1.791 4 4v416.435c0 2.209-1.791 4-4 4z" fill="#bdbdbd"/><path d="m416.048 468.217h-320.096c-2.209 0-4-1.791-4-4v-416.434c0-2.209 1.791-4 4-4h320.095c2.209 0 4 1.791 4 4v416.435c.001 2.208-1.79 3.999-3.999 3.999z" fill="#d4d4d4"/><path d="m385.095 424.435h-320.095c-2.209 0-4-1.791-4-4v-416.435c0-2.209 1.791-4 4-4h320.095c2.209 0 4 1.791 4 4v416.435c0 2.209-1.791 4-4 4z" fill="#f5f5f5"/><path d="m358.143 0v424.435h26.952c2.209 0 4-1.791 4-4v-416.435c0-2.209-1.791-4-4-4z" fill="#e6e6e6"/><g fill="#eb5793"><path d="m322.925 120.531h-196.007c-2.209 0-4-1.791-4-4v-53.811c0-2.209 1.791-4 4-4h196.007c2.209 0 4 1.791 4 4v53.811c0 2.209-1.791 4-4 4z"/><path d="m118.813 324.281h208.097c4.143 0 7.5-3.358 7.5-7.5s-3.357-7.5-7.5-7.5h-208.097c-4.143 0-7.5 3.358-7.5 7.5s3.357 7.5 7.5 7.5z"/><path d="m326.909 342.247h-208.096c-4.143 0-7.5 3.358-7.5 7.5s3.357 7.5 7.5 7.5h208.097c4.143 0 7.5-3.358 7.5-7.5s-3.358-7.5-7.501-7.5z"/></g><circle cx="222.861" cy="186.978" fill="#4fc3f7" r="30.905"/><path d="m222.861 210.383c-31.97 0-57.979 26.009-57.979 57.979 0 4.142 3.357 7.5 7.5 7.5s7.5-3.358 7.5-7.5c0-23.699 19.28-42.979 42.979-42.979 23.698 0 42.979 19.28 42.979 42.979 0 4.142 3.357 7.5 7.5 7.5s7.5-3.358 7.5-7.5c0-31.969-26.009-57.979-57.979-57.979z" fill="#4fc3f7"/></svg>