<svg id="Layer_1" enable-background="new 0 0 256 256" height="512" viewBox="0 0 256 256" width="512" xmlns="http://www.w3.org/2000/svg"><path d="m107.706 50.167v-33.167h-44.948v34.39c0 1.248-.479 2.44-1.31 3.382-11.687 13.239-18.178 30.209-18.178 47.827v145.526h85v-145.526c0-18.124-6.853-35.574-19.18-48.971-.876-.952-1.384-2.176-1.384-3.461z" fill="#e0ebfc"/><path d="m128.27 250.125h-85c-1.104 0-2-.896-2-2v-145.526c0-18.05 6.633-35.505 18.678-49.151.522-.591.81-1.322.81-2.058v-34.39c0-1.104.896-2 2-2h44.948c1.104 0 2 .896 2 2v33.167c0 .759.304 1.508.855 2.107 12.709 13.812 19.708 31.684 19.708 50.325v145.526c.001 1.104-.894 2-1.999 2zm-83-4h81v-143.526c0-17.635-6.624-34.545-18.652-47.616-1.233-1.34-1.912-3.05-1.912-4.816v-31.167h-40.948v32.39c0 1.711-.643 3.383-1.811 4.706-11.399 12.913-17.677 29.429-17.677 46.503z" fill="#3762cc"/><path d="m109.833 38.414h-50c-1.657 0-3-1.343-3-3v-21.289c0-3.866 3.134-7 7-7h42c3.866 0 7 3.134 7 7v21.289c0 1.656-1.343 3-3 3z" fill="#6bdddd"/><path d="m109.833 40.414h-50c-2.757 0-5-2.243-5-5v-21.289c0-4.962 4.038-9 9-9h42c4.962 0 9 4.038 9 9v21.289c0 2.756-2.243 5-5 5zm-46-31.289c-2.757 0-5 2.243-5 5v21.289c0 .551.449 1 1 1h50c.551 0 1-.449 1-1v-21.289c0-2.757-2.243-5-5-5z" fill="#3762cc"/><path d="m178.154 70.253v-29.802h-39.762v30.901c0 1.121-.424 2.193-1.159 3.039-10.338 11.896-16.081 27.144-16.081 42.974v130.76h75.193v-130.76c0-16.285-6.062-31.965-16.967-44.002-.775-.856-1.224-1.956-1.224-3.11z" fill="#f9cfcf"/><path d="m121.152 124h75.193v72.461h-75.193z" fill="#e0ebfc"/><path d="m196.345 250.125h-75.193c-1.104 0-2-.896-2-2v-130.76c0-16.262 5.885-31.99 16.57-44.287.432-.496.669-1.109.669-1.727v-30.9c0-1.104.896-2 2-2h39.762c1.104 0 2 .896 2 2v29.802c0 .637.251 1.265.707 1.768 11.275 12.446 17.485 28.55 17.485 45.345v130.76c0 1.103-.895 1.999-2 1.999zm-73.193-4h71.193v-128.76c0-15.8-5.842-30.95-16.45-42.659-1.123-1.24-1.742-2.822-1.742-4.453v-27.802h-35.762v28.9c0 1.583-.586 3.128-1.65 4.352-10.053 11.568-15.589 26.364-15.589 41.662z" fill="#3762cc"/><path d="m183.749 54.414h-50c-1.657 0-3-1.343-3-3v-21.289c0-3.866 3.134-7 7-7h42c3.866 0 7 3.134 7 7v21.289c0 1.656-1.344 3-3 3z" fill="#f9a7a7"/><path d="m183.749 56.414h-50c-2.757 0-5-2.243-5-5v-21.289c0-4.962 4.038-9 9-9h42c4.962 0 9 4.038 9 9v21.289c0 2.756-2.244 5-5 5zm-46-31.289c-2.757 0-5 2.243-5 5v21.289c0 .551.449 1 1 1h50c.551 0 1-.449 1-1v-21.289c0-2.757-2.243-5-5-5z" fill="#3762cc"/><path d="m116.642 133.283-3.192-2.121c-.748-.497-1.197-1.335-1.197-2.233v-9.029h-73.441v9.029c0 .898-.449 1.736-1.197 2.233l-3.192 2.121c-8.982 5.968-14.38 16.037-14.38 26.821v75.781c0 6.76 5.48 12.24 12.24 12.24h43.249 43.249c6.76 0 12.24-5.48 12.24-12.24v-75.781c.001-10.784-5.397-20.852-14.379-26.821z" fill="#a4c9ff"/><path d="m118.782 250.125h-86.498c-7.853 0-14.241-6.388-14.241-14.24v-75.781c0-11.482 5.709-22.131 15.273-28.486l3.191-2.121c.19-.126.304-.338.304-.567v-9.029c0-1.104.896-2 2-2h73.442c1.104 0 2 .896 2 2v9.029c0 .229.114.44.305.567l3.191 2.12c9.563 6.355 15.273 17.004 15.273 28.486v75.781c0 7.853-6.388 14.241-14.24 14.241zm-77.97-128.224v7.029c0 1.571-.781 3.029-2.09 3.898l-3.191 2.121c-8.445 5.612-13.487 15.016-13.487 25.155v75.781c0 5.646 4.594 10.24 10.241 10.24h86.498c5.646 0 10.24-4.594 10.24-10.24v-75.781c0-10.139-5.042-19.543-13.487-25.155l-3.191-2.121c-1.309-.871-2.09-2.328-2.09-3.899v-7.029h-69.443z" fill="#3762cc"/><path d="m116.82 119.901h-82.575c-2.285 0-4.138-1.853-4.138-4.138v-24.362c0-2.285 1.853-4.138 4.138-4.138h82.575c2.285 0 4.138 1.853 4.138 4.138v24.362c0 2.285-1.853 4.138-4.138 4.138z" fill="#4671c6"/><path d="m20.043 164.619h110.979v49.198h-110.979z" fill="#f9a7a7"/><path d="m116.82 121.901h-82.574c-3.385 0-6.138-2.753-6.138-6.138v-24.362c0-3.385 2.753-6.138 6.138-6.138h82.574c3.385 0 6.138 2.753 6.138 6.138v24.362c0 3.384-2.753 6.138-6.138 6.138zm-82.574-32.638c-1.179 0-2.138.959-2.138 2.138v24.362c0 1.179.959 2.138 2.138 2.138h82.574c1.179 0 2.138-.959 2.138-2.138v-24.362c0-1.179-.959-2.138-2.138-2.138z" fill="#3762cc"/><path d="m131.022 215.817h-110.979c-1.104 0-2-.896-2-2v-49.198c0-1.104.896-2 2-2h110.979c1.104 0 2 .896 2 2v49.198c0 1.104-.896 2-2 2zm-108.979-4h106.979v-45.198h-106.979z" fill="#3762cc"/><path d="m189.723 156.932h32.438v8.434h-32.438z" fill="#6bdddd"/><path d="m185.954 156.932h39.889c1.927 0 3.49-1.562 3.49-3.49v-11.051c0-1.927-1.562-3.49-3.49-3.49h-39.889c-1.927 0-3.49 1.562-3.49 3.49v11.051c.001 1.928 1.563 3.49 3.49 3.49z" fill="#4671c6"/><path d="m215.423 138.902h-19.048v-23.919c0-5.26 4.264-9.524 9.524-9.524 5.26 0 9.524 4.264 9.524 9.524z" fill="#4671c6"/><g fill="#3762cc"><path d="m222.161 167.366h-32.438c-1.104 0-2-.896-2-2v-8.434c0-1.104.896-2 2-2h32.438c1.104 0 2 .896 2 2v8.434c0 1.104-.896 2-2 2zm-30.438-4h28.438v-4.434h-28.438z"/><path d="m225.844 158.932h-39.889c-3.027 0-5.49-2.463-5.49-5.49v-11.051c0-3.027 2.463-5.49 5.49-5.49h39.889c3.027 0 5.49 2.463 5.49 5.49v11.051c-.001 3.027-2.463 5.49-5.49 5.49zm-39.889-18.03c-.821 0-1.49.668-1.49 1.49v11.051c0 .821.668 1.49 1.49 1.49h39.889c.821 0 1.49-.668 1.49-1.49v-11.051c0-.821-.668-1.49-1.49-1.49z"/><path d="m215.423 140.902h-19.048c-1.104 0-2-.896-2-2v-23.919c0-6.354 5.169-11.524 11.524-11.524s11.524 5.169 11.524 11.524v23.919c0 1.104-.895 2-2 2zm-17.048-4h15.048v-21.919c0-4.149-3.375-7.524-7.524-7.524s-7.524 3.375-7.524 7.524z"/></g><path d="m226.743 248.125c3.866 0 7-3.134 7-7v-10.908-16.577-31.772c0-4.04-1.751-7.882-4.799-10.533l-6.865-5.969h-10.535-11.288-10.536l-6.865 5.969c-3.049 2.651-4.799 6.493-4.799 10.533v31.772 16.576 10.908c0 3.866 3.134 7 7 7h41.687z" fill="#6bdddd"/><path d="m226.743 250.125h-41.687c-4.962 0-9-4.038-9-9v-59.256c0-4.621 2-9.01 5.487-12.043l6.865-5.969c.364-.316.83-.491 1.313-.491h32.359c.482 0 .948.174 1.313.491l6.865 5.969c3.487 3.033 5.487 7.422 5.487 12.043v59.256c-.002 4.962-4.04 9-9.002 9zm-36.275-82.759-6.3 5.479c-2.613 2.272-4.112 5.562-4.112 9.024v59.256c0 2.757 2.243 5 5 5h41.687c2.757 0 5-2.243 5-5v-59.256c0-3.463-1.499-6.752-4.112-9.024l-6.3-5.479z" fill="#3762cc"/></svg>