<svg id="Layer_1" enable-background="new 0 0 256 256" height="512" viewBox="0 0 256 256" width="512" xmlns="http://www.w3.org/2000/svg"><g><path d="m183.715 167.209h-111.43c-14.853 0-26.894 12.041-26.894 26.894v58.897h165.218v-23.274-1.976-33.647c0-14.853-12.041-26.894-26.894-26.894z" fill="#4671c6"/><path d="m127.945 127.716h-28.635v38.564c0 15.83 12.833 28.663 28.663 28.663 15.83 0 28.663-12.833 28.663-28.663v-38.564z" fill="#f9cfcf"/><ellipse cx="151.61" cy="161.33" fill="#f9cfcf" rx="23.61" ry="19.346"/><g><path d="m151.61 182.676c-6.075 0-11.962-1.799-16.579-5.066-.902-.638-1.115-1.886-.478-2.788.639-.901 1.886-1.115 2.788-.478 3.947 2.793 9.014 4.332 14.269 4.332 11.916 0 21.61-7.782 21.61-17.347 0-1.104.896-2 2-2s2 .896 2 2c.001 11.771-11.488 21.347-25.61 21.347z" fill="#3762cc"/></g><path d="m183.715 165.209h-6.85c.237-1.278.356-2.576.356-3.879 0-10.85-8.021-19.794-18.586-21.147v-12.466c0-1.104-.896-2-2-2h-57.325c-1.104 0-2 .896-2 2v37.493h-25.025c-15.932 0-28.894 12.962-28.894 28.894v58.896c0 1.104.896 2 2 2h165.218c1.104 0 2-.896 2-2v-58.897c0-15.932-12.962-28.894-28.894-28.894zm24.894 85.791h-20.434v-40.71c0-1.104-.896-2-2-2s-2 .896-2 2v40.71h-109.948v-40.71c0-1.104-.896-2-2-2s-2 .896-2 2v40.71h-22.836v-56.897c0-13.727 11.167-24.894 24.894-24.894h27.048c.542 0 1.06-.22 1.437-.608.714-.737.54-1.32.54-2.32v-36.564h53.325v12.305c0 1.074.849 1.957 1.922 1.999 9.344.364 16.664 7.968 16.664 17.31 0 1.788-.276 3.562-.822 5.272-.193.608-.085 1.272.291 1.788.376.515.977.82 1.615.82h9.41c13.727 0 24.894 11.167 24.894 24.894z" fill="#3762cc"/><path d="m128 143.373c-36.448 0-65.994-29.547-65.994-65.994v-27.641c0-9.161 7.427-16.588 16.588-16.588h115.4v44.23c0 36.447-29.546 65.993-65.994 65.993z" fill="#4671c6"/><path d="m184.207 81.84v-5.263c0-30.763-25.165-55.701-56.207-55.701-31.043 0-56.207 24.938-56.207 55.701v5.263c-9.76-.198-17.503 7.577-17.503 16.976 0 10.036 8.761 17.974 18.988 16.893 5.801 24.644 28.092 43.004 54.723 43.004 26.633 0 48.923-18.362 54.723-43.004 10.213 1.08 18.988-6.843 18.988-16.893-.001-9.403-7.751-17.174-17.505-16.976z" fill="#f9cfcf"/><g><path d="m115.812 131.871c-.509 0-1.019-.193-1.409-.58-.784-.778-.789-2.044-.011-2.829 1.962-1.978 4.577-3.503 7.56-4.411 1.798-.547 3.774-.813 6.041-.813s4.243.266 6.041.813c2.984.908 5.598 2.434 7.56 4.411.778.784.773 2.051-.011 2.829-.785.777-2.051.773-2.829-.011-1.498-1.51-3.532-2.686-5.884-3.401-1.415-.431-3.01-.64-4.876-.64-1.867 0-3.462.209-4.877.64-2.352.715-4.386 1.892-5.884 3.401-.392.393-.907.591-1.421.591z" fill="#3762cc"/></g><path d="m193.994 71.036h-88.183c-18.788 0-34.018-15.23-34.018-34.018 0-18.788 15.23-34.018 34.018-34.018h57.721c16.824 0 30.462 13.638 30.462 30.462z" fill="#4671c6"/><ellipse cx="169.554" cy="129.664" fill="#f9cfcf" rx="22.5" ry="21.086"/><g><path d="m150.607 142.828c-.641 0-1.271-.307-1.658-.878-2.934-4.329-4.249-9.316-3.802-14.421 1.109-12.681 12.954-22.043 26.418-20.863 1.976.172 3.922.568 5.785 1.174 1.05.342 1.624 1.471 1.282 2.521-.343 1.05-1.472 1.622-2.521 1.282-1.574-.513-3.221-.847-4.894-.994-11.271-.982-21.168 6.743-22.085 17.227-.365 4.179.717 8.269 3.129 11.829.62.914.381 2.158-.534 2.778-.343.234-.733.345-1.12.345z" fill="#f9a7a7"/></g><g><g><path d="m151.86 90.081c-1.091 1.249-1.756 2.878-1.756 4.666v7.578c0 3.923 3.181 7.104 7.104 7.104 3.924 0 7.104-3.181 7.104-7.104v-7.234c-5.085-.889-9.326-2.976-12.452-5.01z" fill="#3762cc"/></g><g><path d="m91.728 95.084v7.241c0 3.923 3.181 7.104 7.104 7.104s7.104-3.181 7.104-7.104v-7.578c0-1.796-.672-3.432-1.771-4.683-3.119 2.035-7.356 4.125-12.437 5.02z" fill="#3762cc"/></g><g><path d="m169.371 97.539c-14.916 0-24.571-10.554-24.983-11.014-.738-.822-.67-2.086.151-2.824.82-.738 2.083-.67 2.822.149.107.118 9.333 10.15 22.946 9.673 1.125-.023 2.03.828 2.067 1.931.037 1.104-.828 2.029-1.931 2.067-.36.012-.718.018-1.072.018z" fill="#3762cc"/></g><g><path d="m86.629 97.539c-.355 0-.711-.006-1.072-.018-1.104-.038-1.968-.963-1.931-2.067.038-1.104.945-1.962 2.067-1.931 13.687.468 22.853-9.57 22.944-9.671.738-.823 2.002-.89 2.824-.151.822.738.89 2.002.151 2.824-.412.46-10.068 11.014-24.983 11.014z" fill="#3762cc"/></g></g><ellipse cx="86.432" cy="129.664" fill="#f9cfcf" rx="22.5" ry="21.086"/><g><path d="m105.378 142.828c-.386 0-.776-.111-1.12-.344-.915-.62-1.153-1.864-.534-2.778 2.413-3.56 3.495-7.65 3.129-11.829-.917-10.484-10.82-18.207-22.085-17.227-1.673.146-3.32.481-4.894.994-1.053.341-2.179-.232-2.521-1.282s.232-2.179 1.282-2.521c1.863-.606 3.809-1.002 5.785-1.174 13.471-1.179 25.309 8.182 26.418 20.863.447 5.105-.868 10.092-3.802 14.421-.387.57-1.016.877-1.658.877z" fill="#f9a7a7"/></g><path d="m203.711 98.816c0-5.118-2.022-9.918-5.694-13.516-.724-.71-1.501-1.345-2.312-1.923.177-2.016.289-4.029.289-5.998v-6.343-37.574c0-17.9-14.563-32.462-32.462-32.462h-57.721c-18.597 0-33.946 14.168-35.824 32.277-6.1 3.192-9.981 9.523-9.981 16.461v27.641c0 1.972.111 3.985.289 5.997-.811.578-1.587 1.213-2.311 1.922-3.672 3.598-5.694 8.399-5.694 13.518 0 8.547 5.668 15.853 13.648 18.201-2.602 3.738-4.006 8.125-4.006 12.647 0 12.729 10.991 23.086 24.5 23.086 3.225 0 6.348-.58 9.301-1.726 9.574 6.343 20.706 9.689 32.267 9.689 11.559 0 22.689-3.345 32.262-9.686 2.951 1.144 6.071 1.723 9.292 1.723 13.509 0 24.5-10.356 24.5-23.086 0-4.521-1.403-8.906-4.004-12.644 7.987-2.345 13.661-9.651 13.661-18.204zm-97.9-93.816h57.721c15.694 0 28.462 12.768 28.462 28.462v35.574h-8.065-78.119c-7.438 0-14.989-2.672-20.978-7.861-22.711-19.661-8.083-56.175 20.979-56.175zm80.286 68.036h5.897v4.343c0 1.282-.041 2.584-.121 3.894-1.876-.766-3.897-1.223-5.666-1.369v-3.326c.001-1.049-.056-2.672-.11-3.542zm-122.091-23.298c0-4.628 2.201-8.916 5.803-11.636.163 5.439 1.589 11.036 4.37 16.127.03.055.055.112.085.166-4.751 11.28-4.471 20.536-4.471 25.509-1.765.146-3.773.596-5.666 1.369-.08-1.308-.12-2.61-.12-3.894v-27.641zm122.198 63.981c-1.642.174-2.379 2.159-1.245 3.361 3.286 3.484 5.095 7.953 5.095 12.584 0 10.524-9.196 19.086-20.5 19.086-3.043 0-5.977-.61-8.719-1.813-.634-.278-1.368-.208-1.938.185-9.102 6.274-19.786 9.59-30.896 9.59-11.113 0-21.798-3.317-30.902-9.594-.577-.398-1.311-.46-1.939-.185-2.745 1.205-5.681 1.816-8.728 1.816-11.304 0-20.5-8.562-20.5-19.086 0-4.632 1.81-9.101 5.095-12.584 1.133-1.201.4-3.186-1.243-3.361-7.693-.82-13.495-7.227-13.495-14.903 0-4.035 1.596-7.821 4.494-10.661 2.767-2.712 6.753-4.393 10.969-4.316 1.048.04 2.041-.829 2.041-2v-5.263c0-6.382 1.085-12.288 3.157-18.025 6.886 9.197 17.668 14.484 28.861 14.484h76.278c.079 1.188.119 2.374.119 3.541v5.263c0 1.096.898 2.03 2.041 2 4.197-.067 8.167 1.571 10.969 4.317 2.898 2.84 4.494 6.625 4.494 10.66-.001 7.682-5.808 14.089-13.508 14.904z" fill="#3762cc"/></g></svg>