<svg id="Capa_1" enable-background="new 0 0 512 512" height="512" viewBox="0 0 512 512" width="512" xmlns="http://www.w3.org/2000/svg" xmlns:xlink="http://www.w3.org/1999/xlink"><linearGradient id="SVGID_1_" gradientUnits="userSpaceOnUse" x1="256" x2="256" y1="512" y2="0"><stop offset="0" stop-color="#00b59c"/><stop offset="1" stop-color="#9cffac"/></linearGradient><g><g><g><path d="m345 152h15v255c0 8.284 6.716 15 15 15h60c8.284 0 15-6.716 15-15v-255h15c5.532 0 10.615-3.045 13.225-7.922s2.325-10.795-.744-15.398l-60-90c-2.782-4.174-7.465-6.68-12.481-6.68s-9.699 2.506-12.48 6.68l-60 90c-3.069 4.603-3.354 10.521-.744 15.398 2.609 4.877 7.692 7.922 13.224 7.922zm60-77.958 31.973 47.958h-1.973c-8.284 0-15 6.716-15 15v255h-30v-255c0-8.284-6.716-15-15-15h-1.973zm92 377.958h-437v-437c0-8.284-6.716-15-15-15s-15 6.716-15 15v17h-15c-8.284 0-15 6.716-15 15s6.716 15 15 15h15v90h-15c-8.284 0-15 6.716-15 15s6.716 15 15 15h15v90h-15c-8.284 0-15 6.716-15 15s6.716 15 15 15h15v90h-15c-8.284 0-15 6.716-15 15s6.716 15 15 15h15v45c0 8.284 6.716 15 15 15h45v15c0 8.284 6.716 15 15 15s15-6.716 15-15v-15h90v15c0 8.284 6.716 15 15 15s15-6.716 15-15v-15h90v15c0 8.284 6.716 15 15 15s15-6.716 15-15v-15h90v15c0 8.284 6.716 15 15 15s15-6.716 15-15v-15h17c8.284 0 15-6.716 15-15s-6.716-15-15-15zm-362-30h60c8.284 0 15-6.716 15-15v-90c0-8.284-6.716-15-15-15h-60c-8.284 0-15 6.716-15 15v90c0 8.284 6.716 15 15 15zm15-90h30v60h-30zm105 90h60c8.284 0 15-6.716 15-15v-180c0-8.284-6.716-15-15-15h-60c-8.284 0-15 6.716-15 15v180c0 8.284 6.716 15 15 15zm15-180h30v150h-30z" fill="url(#SVGID_1_)"/></g></g></g></svg>