<svg height="470pt" viewBox="0 -22 470.26489 470" width="470pt" xmlns="http://www.w3.org/2000/svg"><path d="m414.808594 106.738281s-58.871094-7.09375-100.207032 34.242188c-41.335937 41.335937-30.289062 96.253906-30.289062 96.253906s54.921875 11.050781 96.257812-30.285156c41.335938-41.335938 34.238282-100.210938 34.238282-100.210938zm0 0" fill="#f9dd9d"/><path d="m301.769531 242.644531c-10.496093 0-17.441406-1.328125-18.234375-1.488281-1.574218-.320312-2.816406-1.550781-3.132812-3.136719-.472656-2.328125-10.984375-57.503906 31.375-99.871093 42.222656-42.226563 101.023437-35.671876 103.511718-35.382813 1.832032.222656 3.269532 1.660156 3.496094 3.492187.296875 2.488282 6.839844 61.289063-35.382812 103.515626-27.90625 27.902343-61.378906 32.871093-81.632813 32.871093zm-13.945312-8.929687c11.335937 1.464844 55.769531 4.542968 89.921875-29.597656 33.980468-33.992188 34.015625-80.984376 33.335937-93.65625-12.664062-.664063-59.664062-.648438-93.65625 33.335937-34.226562 34.238281-31.074219 78.597656-29.601562 89.917969zm0 0" fill="#63312d"/><path d="m276.960938 90.8125c-.128907 0-.265626-.007812-.390626-.015625-2.082031-.203125-3.792968-1.976563-3.792968-4.023437 0-.121094.007812-.242188.015625-.363282.214843-2.191406 2-3.765625 4.191406-3.605468l.359375.03125c2.066406.199218 3.609375 1.945312 3.609375 3.976562 0 .136719-.007813.261719-.015625.398438-.199219 2.058593-1.945312 3.601562-3.976562 3.601562zm0 0" fill="#63312d"/><path d="m266.710938 85.796875-5.109376-.503906c-5.5625-16.234375-12.023437-38.855469-10.617187-53.066407.335937-3.40625 1.136719-6.621093 2.289063-9.597656-8.410157-6.96875-19.21875-9.050781-27.898438-4.371094-12.167969 6.578126-15.519531 23.960938-7.488281 38.84375 4.992187 9.246094 16.066406 19.878907 27.027343 28.972657 2.503907-.824219 5-1.375 7.398438-1.703125zm-7.773438-8.609375-.007812-.007812zm0 0" fill="#84dbff"/><path d="m328.679688 28.5c-7.589844-6.296875-18.597657-6.375-28.207032-1.191406.542969 3.144531.695313 6.457031.359375 9.863281-1.429687 14.421875-12.144531 35.214844-20.757812 49.953125l9.222656.910156c2.289063.792969 4.625 1.824219 6.917969 3.128906 12.53125-6.761718 25.480468-15.023437 32.1875-23.113281 10.789062-13.015625 10.917968-30.71875.277344-39.550781zm0 0" fill="#84dbff"/><path d="m300.472656 27.308594c-2.128906-12.375-10.566406-21.984375-21.542968-23.074219-10.976563-1.085937-21.136719 6.679687-25.65625 18.402344-1.144532 2.976562-1.953126 6.191406-2.289063 9.597656-1.40625 14.203125 5.054687 36.832031 10.617187 53.066406l5.109376.503907 9.882812.976562.359375.03125 3.109375.3125c8.617188-14.738281 19.328125-35.53125 20.761719-49.953125.335937-3.40625.183593-6.71875-.351563-9.863281zm0 0" fill="#84dbff"/><path d="m244.914062 90.074219c-.921874 0-1.824218-.320313-2.554687-.917969-14.078125-11.679688-23.496094-21.824219-27.992187-30.160156-9.0625-16.792969-4.984376-36.648438 9.113281-44.257813 9.921875-5.351562 22.320312-3.511719 32.34375 4.808594 1.328125 1.097656 1.800781 2.914063 1.183593 4.511719-1.0625 2.769531-1.75 5.648437-2.039062 8.5625-1.265625 12.765625 4.328125 33.191406 9.601562 48.933594l2.542969.257812c2.199219.214844 3.808594 2.175781 3.582031 4.375-.214843 2.191406-2.175781 3.769531-4.367187 3.585938h-.03125l-5.082031-.503907c-.046875 0-.09375-.011719-.140625-.019531l-8.671875-.855469c-2.136719.320313-4.226563.816407-6.226563 1.480469-.414062.136719-.839843.199219-1.261719.199219zm-9.363281-70.34375c-2.910156 0-5.71875.671875-8.269531 2.050781-10.207031 5.511719-12.839844 20.503906-5.871094 33.414062 3.78125 7.007813 12.207032 16.121094 24.414063 26.425782 1.945312-.539063 3.929687-.945313 5.945312-1.21875.320313-.039063.632813-.039063.933594-.015625l3.152344.3125c-5.160157-15.984375-10.167969-35.664063-8.855469-48.863281.257812-2.625.777344-5.222657 1.542969-7.769532-4.167969-2.855468-8.6875-4.335937-12.992188-4.335937zm0 0" fill="#63312d"/><path d="m296.214844 95.164062c-.679688 0-1.359375-.175781-1.972656-.519531-1.839844-1.050781-3.800782-1.945312-5.824219-2.671875l-8.746094-.863281c-1.351563-.136719-2.550781-.953125-3.167969-2.167969-.625-1.21875-.574218-2.664062.113282-3.832031 8.488281-14.503906 18.878906-34.664063 20.230468-48.328125.289063-2.929688.175782-5.882812-.320312-8.792969-.292969-1.6875.527344-3.382812 2.042968-4.199219 11.484376-6.175781 24-5.5625 32.664063 1.628907 6.085937 5.050781 9.40625 12.625 9.34375 21.320312-.058594 8.394531-3.296875 16.867188-9.105469 23.875-6.03125 7.277344-17.257812 15.375-33.359375 24.070313-.59375.320312-1.25.480468-1.898437.480468zm-9.605469-11.417968 3.078125.304687c.3125.03125.617188.097657.914062.199219 1.917969.664062 3.789063 1.457031 5.589844 2.363281 14-7.714843 24.050782-15 29.128906-21.121093 4.632813-5.585938 7.207032-12.273438 7.257813-18.824219.046875-6.25-2.25-11.609375-6.457031-15.105469-5.519532-4.582031-13.496094-5.261719-21.304688-1.925781.257813 2.632812.257813 5.277343-.007812 7.910156-1.328125 13.402344-10.046875 31.648437-18.199219 46.199219zm0 0" fill="#63312d"/><path d="m314.800781 132.507812c1.296875-23.566406-8.144531-35.40625-18.59375-41.34375-2.292969-1.304687-4.628906-2.328124-6.917969-3.128906l-9.226562-.910156-3.109375-.3125-.359375-.03125-9.882812-.976562-14.398438-1.425782c-2.398438.328125-4.894531.878906-7.398438 1.703125-11.410156 3.769531-22.984374 13.53125-26.34375 36.898438-3.320312 23.121093 3.269532 59.925781 11.34375 92.902343l19.75 83.6875 35.785157-78.191406c14.390625-30.75 28.070312-65.550781 29.351562-88.871094zm0 0" fill="#f9a287"/><g fill="#63312d"><path d="m249.664062 303.5625c-.128906 0-.261718-.007812-.390624-.015625-1.695313-.167969-3.105469-1.398437-3.503907-3.0625l-19.753906-83.6875c-10.429687-42.640625-14.269531-74.410156-11.40625-94.394531 3.808594-26.488282 17.894531-36.4375 29.046875-40.117188 2.609375-.867187 5.335938-1.496094 8.113281-1.875.320313-.039062.632813-.039062.933594-.015625l36.984375 3.664063c.3125.03125.617188.097656.914062.199218 2.640626.914063 5.191407 2.066407 7.582032 3.425782 10.21875 5.808594 22.082031 18.328125 20.609375 45.039062-1.105469 20.152344-11.105469 50.554688-29.710938 90.351563l-35.777343 78.160156c-.664063 1.433594-2.089844 2.328125-3.640626 2.328125zm2.738282-215.167969c-2.136719.320313-4.226563.816407-6.226563 1.480469-13.101562 4.328125-21.046875 15.65625-23.640625 33.664062-2.6875 18.695313 1.210938 50.296876 11.265625 91.382813l17.078125 72.378906 30.9375-67.585937c17.9375-38.351563 27.960938-68.574219 28.992188-87.429688 1-18.167968-4.574219-30.832031-16.566406-37.648437-1.839844-1.042969-3.800782-1.945313-5.824219-2.664063zm0 0"/><path d="m280.0625 91.125c-.125 0-.261719-.007812-.390625-.015625l-18.464844-1.832031c-1.558593-.152344-2.886719-1.203125-3.390625-2.683594-5.742187-16.765625-12.289062-39.878906-10.816406-54.75.351562-3.625 1.207031-7.199219 2.527344-10.648438 5.3125-13.769531 17.335937-22.175781 29.785156-20.945312 12.503906 1.242188 22.59375 11.832031 25.089844 26.378906.621094 3.613282.757812 7.292969.398437 10.933594-1.496093 15.105469-12.398437 36.386719-21.289062 51.578125-.710938 1.230469-2.039063 1.984375-3.449219 1.984375zm-15.503906-9.5625 13.335937 1.320312c8.21875-14.289062 17.664063-33.136718 18.953125-46.109374.289063-2.929688.175782-5.882813-.320312-8.792969-1.878906-10.953125-9.109375-18.898438-18-19.777344-8.839844-.863281-17.527344 5.496094-21.527344 15.855469-1.0625 2.769531-1.75 5.648437-2.03125 8.5625-1.273438 12.773437 4.328125 33.199218 9.589844 48.941406zm0 0"/><path d="m280.074219 91.125c-.136719 0-.265625-.007812-.402344-.015625l-3.113281-.3125c-2.0625-.203125-3.605469-1.945313-3.605469-3.984375 0-.128906.007813-.265625.015625-.394531.214844-2.199219 2.246094-3.742188 4.375-3.582031l3.113281.3125c2.0625.199218 3.605469 1.941406 3.605469 3.984374 0 .125-.007812.261719-.015625.390626-.207031 2.054687-1.941406 3.601562-3.972656 3.601562zm0 0"/></g><path d="m180.375 93.484375c-18.648438-15.976563-36.375-23.960937-50.167969-44.664063-2.414062-3.625-4.847656-6.871093-7.269531-9.777343-28.335938-33.808594-56.304688-20.871094-56.304688-20.871094s-34.558593 11.191406-25.855468 65.664063c3.925781 24.558593-3.65625 42.464843-6.496094 66.855468-5.039062 43.34375 10.144531 97.894532 48.214844 123 15.472656 10.199219 33.96875 13.929688 52.488281 12.769532l63.671875-24.9375c2.953125-2.398438 5.761719-4.960938 8.40625-7.664063 10.234375-10.457031 17.921875-23.0625 21.449219-37.359375 10.898437-44.265625-15-94.617188-48.136719-123.015625zm0 0" fill="#f9dd9d"/><path d="m98.496094 273.707031c-38.070313-25.101562-53.253906-79.65625-48.214844-123 2.839844-24.390625 10.421875-42.289062 6.496094-66.855469-8.703125-54.480468 25.855468-65.664062 25.855468-65.664062s2.105469-.9375 5.664063-1.65625c-12.800781-2.449219-21.664063 1.65625-21.664063 1.65625s-34.558593 11.191406-25.855468 65.664062c3.925781 24.558594-3.65625 42.464844-6.496094 66.855469-5.039062 43.34375 10.144531 97.898438 48.214844 123 15.472656 10.199219 33.96875 13.929688 52.488281 12.769531l.625-.25c-13.191406-1.207031-25.945313-5.160156-37.113281-12.519531zm0 0" fill="#ffeecf"/><path d="m128.519531 290.675781c-18.0625 0-34.625-4.664062-48.230469-13.640625-41.3125-27.238281-54.863281-84.824218-49.992187-126.800781.917969-7.949219 2.335937-15.160156 3.6875-22.125 2.886719-14.824219 5.390625-27.625 2.832031-43.632813-9.136718-57.199218 28.199219-69.984374 28.574219-70.105468.808594-.40625 30.648437-13.648438 60.601563 22.105468 2.558593 3.0625 5.097656 6.472657 7.535156 10.117188 9 13.507812 19.519531 21.203125 31.714844 30.113281 5.734374 4.191407 11.664062 8.527344 17.734374 13.738281 32.085938 27.503907 61.238282 78.980469 49.414063 127.023438-3.550781 14.398438-11.117187 27.582031-22.46875 39.199219-2.746094 2.800781-5.679687 5.480469-8.746094 7.96875-.320312.261719-.679687.472656-1.0625.621093l-63.671875 24.9375c-.386718.152344-.792968.242188-1.207031.273438-2.257813.144531-4.496094.207031-6.714844.207031zm-48.457031-270.910156c-7.132812 0-11.644531 2-11.75 2.046875-1.703125.597656-31.601562 11.246094-23.59375 61.40625 2.785156 17.417969.035156 31.503906-2.871094 46.433594-1.335937 6.824218-2.703125 13.878906-3.597656 21.519531-4.609375 39.625 7.964844 93.824219 46.445312 119.199219 13.664063 9.007812 30.671876 13.242187 49.417969 12.160156l62.496094-24.480469c2.65625-2.183593 5.207031-4.527343 7.597656-6.96875 10.335938-10.574219 17.210938-22.519531 20.425781-35.519531 11.007813-44.75-16.570312-93.078125-46.855468-119.039062-5.839844-5.007813-11.648438-9.246094-17.257813-13.351563-12.269531-8.976563-23.863281-17.457031-33.648437-32.136719-2.277344-3.414062-4.636719-6.582031-7.015625-9.421875-15.101563-18.035156-29.941407-21.847656-39.792969-21.847656zm0 0" fill="#63312d"/><path d="m174.550781 165.898438c11.464844 29.273437 1.320313 60.609374-22.65625 70-23.972656 9.394531-52.703125-6.726563-64.167969-35.992188-11.460937-29.261719-3.542968-66.285156 20.433594-75.671875 23.976563-9.398437 54.929688 12.394531 66.390625 41.664063zm0 0" fill="#f9a287"/><path d="m137.585938 242.585938c-8.152344 0-16.480469-2.253907-24.417969-6.703126-12.925781-7.246093-23.28125-19.503906-29.160157-34.519531-11.558593-29.511719-5.078124-69.976562 22.695313-80.855469 12.578125-4.9375 27.328125-2.535156 41.53125 6.710938 13.191406 8.609375 24.148437 22.167969 30.039063 37.226562 5.878906 15.007813 6.597656 31.046876 2.039062 45.140626-4.65625 14.386718-14.230469 25.050781-26.96875 30.035156-5.054688 1.984375-10.375 2.964844-15.757812 2.964844zm-17.394532-116.582032c-3.695312 0-7.238281.648438-10.574218 1.945313-20.769532 8.132812-29.425782 41.734375-18.167969 70.496093 5.207031 13.292969 14.3125 24.109376 25.625 30.460938 11.054687 6.203125 22.902343 7.351562 33.359375 3.265625 10.453125-4.097656 18.367187-12.992187 22.269531-25.046875 3.992187-12.34375 3.328125-26.464844-1.878906-39.769531-5.304688-13.535157-15.128907-25.71875-26.960938-33.441407-8.03125-5.238281-16.152343-7.910156-23.671875-7.910156zm0 0" fill="#63312d"/><path d="m183.128906 377.804688h155.015625v44.773437h-155.015625zm0 0" fill="#efc36a"/><path d="m338.136719 426.578125h-155.007813c-2.207031 0-4-1.789063-4-4v-44.78125c0-2.210937 1.792969-4 4-4h155.015625c2.207031 0 4 1.789063 4 4v44.78125c-.007812 2.21875-1.792969 4-4.007812 4zm-151.007813-8h147.015625v-36.78125h-147.015625zm0 0" fill="#63312d"/><path d="m183.601562 377.804688h154.0625c74.425782-30.128907 127.242188-102.402344 128.601563-187.335938h-411.265625c1.359375 84.933594 54.175781 157.207031 128.601562 187.335938zm0 0" fill="#52b8d9"/><path d="m337.664062 381.804688h-154.0625c-.511718 0-1.023437-.097657-1.503906-.296876-78.289062-31.679687-129.753906-106.648437-131.105468-190.976562-.015626-1.070312.398437-2.105469 1.152343-2.863281.75-.769531 1.785157-1.191407 2.847657-1.191407h411.273437c1.070313 0 2.09375.429688 2.847656 1.191407.75.757812 1.167969 1.800781 1.152344 2.863281-1.351563 84.328125-52.808594 159.289062-131.105469 190.976562-.472656.191407-.976562.296876-1.496094.296876zm-153.28125-8h152.503907c73.648437-30.136719 122.433593-100.144532 125.28125-179.335938h-403.0625c2.847656 79.191406 51.632812 149.207031 125.277343 179.335938zm0 0" fill="#63312d"/><path d="m286.671875 377.804688c74.425781-30.128907 127.242187-102.402344 128.601563-187.335938h-411.273438c1.359375 84.933594 54.175781 157.207031 128.601562 187.335938zm0 0" fill="#84dbff"/><path d="m414.390625 206.46875c.496094-5.28125.792969-10.617188.882813-16h-411.273438c.089844 5.382812.390625 10.71875.878906 16zm0 0" fill="#caf4ff"/><path d="m150.113281 377.753906c-74.359375-30.148437-127.128906-102.390625-128.488281-187.285156h-17.625c1.359375 84.894531 54.128906 157.136719 128.496094 187.285156zm0 0" fill="#caf4ff"/><path d="m286.671875 381.804688h-154.0625c-.511719 0-1.023437-.097657-1.503906-.296876-78.296875-31.6875-129.753907-106.648437-131.105469-190.976562-.015625-1.070312.402344-2.105469 1.152344-2.863281.753906-.769531 1.785156-1.191407 2.847656-1.191407h411.273438c1.070312 0 2.09375.429688 2.847656 1.191407.75.757812 1.167968 1.800781 1.152344 2.863281-1.351563 84.335938-52.816407 159.296875-131.105469 190.976562-.472657.191407-.984375.296876-1.496094.296876zm-153.289063-8h152.503907c73.648437-30.128907 122.433593-100.144532 125.28125-179.335938h-403.054688c2.847657 79.191406 51.632813 149.199219 125.269531 179.335938zm0 0" fill="#63312d"/><path d="m132.609375 377.804688h155.015625v44.773437h-155.015625zm0 0" fill="#f9dd9d"/><path d="m287.625 426.578125h-155.015625c-2.207031 0-4-1.789063-4-4v-44.78125c0-2.210937 1.792969-4 4-4h155.015625c2.207031 0 4 1.789063 4 4v44.78125c0 2.21875-1.792969 4-4 4zm-151.015625-8h147.015625v-36.78125h-147.015625zm0 0" fill="#63312d"/></svg>