<svg height="512pt" viewBox="0 0 512 512" width="512pt" xmlns="http://www.w3.org/2000/svg"><path d="m419.390625 71 71-71 21.210937 21.214844-71 70.996094zm0 0" fill="#27d8f6"/><path d="m429.996094 81.605469 71-71 10.605468 10.609375-70.996093 70.996094zm0 0" fill="#00c0f1"/><path d="m58.972656 77.738281 10.050782-28.265625 134.996093 47.996094-10.050781 28.265625zm0 0" fill="#27d8f6"/><path d="m0 240.601562h195v30h-195zm0 0" fill="#27d8f6"/><path d="m166.390625 323.996094 44-44 21.210937 21.214844-44 43.996093zm0 0" fill="#ddebf0"/><path d="m176.996094 334.601562 44-44 10.605468 10.609376-43.996093 43.996093zm0 0" fill="#c5e1e6"/><path d="m362 328.601562h30v108h-30zm0 0" fill="#00c0f1"/><path d="m326 352.601562c-90.980469 0-165-74.019531-165-165 0-90.980468 74.019531-165 165-165s165 74.019532 165 165c0 90.980469-74.019531 165-165 165zm0 0" fill="#0042a2"/><path d="m441.605469 69.996094-233.210938 233.210937c29.953125 30.46875 71.609375 49.394531 117.605469 49.394531 90.980469 0 165-74.019531 165-165 0-45.996093-18.925781-87.652343-49.394531-117.605468zm0 0" fill="#002859"/><path d="m326 52.601562c-74.4375 0-135 60.5625-135 135 0 74.441407 60.5625 135 135 135s135-60.558593 135-135c0-74.4375-60.5625-135-135-135zm0 0" fill="#edf3f6"/><path d="m420.402344 91.199219-190.804688 190.804687c24.519532 25.035156 58.675782 40.597656 96.402344 40.597656 74.4375 0 135-60.558593 135-135 0-37.726562-15.5625-71.882812-40.597656-96.402343zm0 0" fill="#ddebf0"/><g fill="#ff6379"><path d="m248.929688 132.238281 21.132812-21.292969 45.210938 44.867188-21.132813 21.292969zm0 0"/><path d="m335.175781 154.519531 43.167969-43.5 21.292969 21.132813-43.167969 43.5zm0 0"/><path d="m311 97.601562h30v60h-30zm0 0"/></g><path d="m336.71875 219.363281 21.132812-21.292969 45.210938 44.867188-21.132812 21.292969zm0 0" fill="#f30051"/><path d="m356 172.601562h60v30h-60zm0 0" fill="#f30051"/><path d="m236 172.601562h60v30h-60zm0 0" fill="#ff6379"/><path d="m246.351562 244.023438 46.644532-47 21.292968 21.128906-46.644531 47.003906zm0 0" fill="#ff6379"/><path d="m311 217.601562h30v60h-30zm0 0" fill="#f30051"/><path d="m407 451.601562h105v30h-105zm0 0" fill="#00c0f1"/><path d="m154.273438 294.113281-153.710938 153.714844-.402344 5.578125c-1.183594 16.496094 4.25 31.671875 15.308594 42.730469 10.0625 10.058593 23.53125 15.46875 38.304688 15.46875 1.460937 0 2.9375-.054688 4.421874-.160157l5.578126-.402343 153.714843-153.714844zm0 0" fill="#0042a2"/><path d="m377 511.601562c-24.8125 0-45-20.1875-45-45s20.1875-45 45-45 45 20.1875 45 45-20.1875 45-45 45zm0-60c-8.269531 0-15 6.730469-15 15 0 8.273438 6.730469 15 15 15s15-6.726562 15-15c0-8.269531-6.730469-15-15-15zm0 0" fill="#fdbf00"/><path d="m46 90.601562c-24.8125 0-45-20.1875-45-45s20.1875-45 45-45 45 20.1875 45 45-20.1875 45-45 45zm0-60c-8.269531 0-15 6.730469-15 15 0 8.273438 6.730469 15 15 15s15-6.726562 15-15c0-8.269531-6.730469-15-15-15zm0 0" fill="#ffdc55"/><path d="m346.167969 165.4375 10.308593 10.230469 43.167969-43.5-10.140625-10.066407zm0 0" fill="#f30051"/><path d="m267.644531 265.167969 46.648438-46.996094-10.46875-10.390625-46.824219 46.820312zm0 0" fill="#f30051"/><path d="m15.46875 496.132812c10.0625 10.0625 23.53125 15.46875 38.304688 15.46875 1.460937 0 2.9375-.050781 4.421874-.160156l5.578126-.398437 153.714843-153.714844-31.605469-31.605469zm0 0" fill="#002859"/></svg>