<svg id="Flat" height="512" viewBox="0 0 512 512" width="512" xmlns="http://www.w3.org/2000/svg"><path d="m64 56h384a0 0 0 0 1 0 0v416a16 16 0 0 1 -16 16h-352a16 16 0 0 1 -16-16v-416a0 0 0 0 1 0 0z" fill="#7e8589"/><path d="m96 88h320v368h-320z" fill="#fbe9d8"/><circle cx="200" cy="224" fill="#a3d4f7" r="72"/><path d="m208 24h96a16 16 0 0 1 16 16v16a0 0 0 0 1 0 0h-128a0 0 0 0 1 0 0v-16a16 16 0 0 1 16-16z" fill="#6a7073"/><path d="m336 112h-160a24.028 24.028 0 0 1 -24-24v-32a8 8 0 0 1 8-8h192a8 8 0 0 1 8 8v32a24.028 24.028 0 0 1 -24 24zm-168-48v24a8.009 8.009 0 0 0 8 8h160a8.009 8.009 0 0 0 8-8v-24z" fill="#9aa3a8"/><path d="m216 88h80v32h-80z" fill="#6a7073"/><path d="m232 208h-16v-16a8 8 0 0 0 -8-8h-16a8 8 0 0 0 -8 8v16h-16a8 8 0 0 0 -8 8v16a8 8 0 0 0 8 8h16v16a8 8 0 0 0 8 8h16a8 8 0 0 0 8-8v-16h16a8 8 0 0 0 8-8v-16a8 8 0 0 0 -8-8z" fill="#ed6f6d"/><g fill="#bfb1a3"><path d="m384 176h-80a8 8 0 0 1 0-16h80a8 8 0 0 1 0 16z"/><path d="m384 208h-80a8 8 0 0 1 0-16h80a8 8 0 0 1 0 16z"/><path d="m384 240h-80a8 8 0 0 1 0-16h80a8 8 0 0 1 0 16z"/><path d="m384 272h-80a8 8 0 0 1 0-16h80a8 8 0 0 1 0 16z"/><path d="m384 304h-80a8 8 0 0 1 0-16h80a8 8 0 0 1 0 16z"/><path d="m384 336h-176a8 8 0 0 1 0-16h176a8 8 0 0 1 0 16z"/><path d="m384 368h-176a8 8 0 0 1 0-16h176a8 8 0 0 1 0 16z"/><path d="m384 400h-176a8 8 0 0 1 0-16h176a8 8 0 0 1 0 16z"/><path d="m352 432h-144a8 8 0 0 1 0-16h144a8 8 0 0 1 0 16z"/></g><path d="m128 328h48v32h-48z" fill="#a3d4f7"/><path d="m128 392h48v32h-48z" fill="#a3d4f7"/><circle cx="384" cy="424" fill="#bfb1a3" r="8"/></svg>