<svg id="Layer_1" enable-background="new 0 0 256 256" height="512" viewBox="0 0 256 256" width="512" xmlns="http://www.w3.org/2000/svg"><g><g><path d="m78.455 205.683v-80.989c0-11.02 8.934-19.954 19.954-19.954h87.134l-13.635-17.96h-41.904l-19.954-21.615h-46.546c-11.02 0-19.954 8.934-19.954 19.954v120.563c0 8.565 6.175 15.675 14.314 17.156 1.02.186 2.065.297 3.139.297 9.638 0 17.452-7.813 17.452-17.452z" fill="#707070"/><g><path d="m58.216 205.683v-120.563c0-11.021 8.934-19.955 19.954-19.955h-14.666c-11.02 0-19.954 8.934-19.954 19.955v120.563c0 8.565 6.175 15.675 14.314 17.156 1.02.185 2.065.297 3.138.297 2.624 0 5.102-.595 7.335-1.632-5.973-2.769-10.121-8.804-10.121-15.821z" fill="#5b5b5b"/></g><path d="m63 21.111h130v174.842h-130z" fill="#cecece"/><g><path d="m178.333 21.111h14.667v174.841h-14.667z" fill="#e2e2e2"/></g><g><path d="m63 21.111h14.667v174.841h-14.667z" fill="#afafaf"/></g><path d="m185.543 104.739h-87.134c-11.02 0-19.954 8.934-19.954 19.954v80.989c0 9.639-7.814 17.452-17.452 17.452h133.997c9.637 0 17.45-7.813 17.45-17.45v-100.945z" fill="#63bce7"/><g><path d="m197.784 104.739v100.946c0 9.637-7.813 17.45-17.45 17.45h14.666c9.637 0 17.45-7.813 17.45-17.45v-100.946z" fill="#63e2e7"/></g><g><circle cx="145.477" cy="163.937" fill="#f46275" r="34.362"/><path d="m164.375 157.672h-10.687c-1.118 0-2.025-.907-2.025-2.025v-10.687c0-1.118-.907-2.025-2.025-2.025h-8.324c-1.118 0-2.025.907-2.025 2.025v10.687c0 1.118-.907 2.025-2.025 2.025h-10.687c-1.118 0-2.025.907-2.025 2.025v8.324c0 1.118.907 2.025 2.025 2.025h10.687c1.118 0 2.025.907 2.025 2.025v10.687c0 1.118.907 2.025 2.025 2.025h8.324c1.118 0 2.025-.907 2.025-2.025v-10.688c0-1.118.907-2.025 2.025-2.025h10.687c1.118 0 2.025-.907 2.025-2.025v-8.324c0-1.118-.907-2.024-2.025-2.024z" fill="#f8af23"/></g><path d="m105.298 42.092h-6.923c-.724 0-1.312-.587-1.312-1.312v-6.923c0-.724-.587-1.312-1.312-1.312h-5.393c-.724 0-1.312.587-1.312 1.312v6.923c0 .724-.587 1.312-1.312 1.312h-6.923c-.724 0-1.312.587-1.312 1.312v5.393c0 .724.587 1.312 1.312 1.312h6.923c.724 0 1.312.587 1.312 1.312v6.923c0 .724.587 1.312 1.312 1.312h5.393c.724 0 1.312-.587 1.312-1.312v-6.924c0-.724.587-1.312 1.312-1.312h6.923c.724 0 1.312-.587 1.312-1.312v-5.393c0-.724-.587-1.311-1.312-1.311z" fill="#f8af23"/></g><g fill="#3f3679"><path d="m145.477 199.799c19.774 0 35.861-16.087 35.861-35.861s-16.087-35.862-35.861-35.862-35.861 16.087-35.861 35.862c-.001 19.773 16.087 35.861 35.861 35.861zm0-68.723c18.12 0 32.861 14.742 32.861 32.862s-14.741 32.861-32.861 32.861-32.861-14.742-32.861-32.861c-.001-18.121 14.741-32.862 32.861-32.862z"/><path d="m126.578 171.545h10.687c.29 0 .525.235.525.525v10.687c0 1.944 1.581 3.525 3.524 3.525h8.324c1.944 0 3.525-1.581 3.525-3.525v-10.687c0-.29.235-.525.524-.525h10.687c1.944 0 3.525-1.581 3.525-3.525v-8.324c0-1.944-1.581-3.525-3.525-3.525h-10.687c-.289 0-.524-.235-.524-.524v-10.687c0-1.943-1.581-3.524-3.525-3.524h-8.324c-1.943 0-3.524 1.581-3.524 3.524v10.687c0 .289-.235.524-.525.524h-10.687c-1.943 0-3.524 1.581-3.524 3.525v8.324c0 1.944 1.581 3.525 3.524 3.525zm-.524-11.849c0-.29.235-.525.524-.525h10.687c1.944 0 3.525-1.581 3.525-3.524v-10.687c0-.289.235-.524.524-.524h8.324c.29 0 .525.235.525.524v10.687c0 1.943 1.581 3.524 3.524 3.524h10.687c.29 0 .525.235.525.525v8.324c0 .29-.235.525-.525.525h-10.687c-1.943 0-3.524 1.581-3.524 3.525v10.687c0 .29-.235.525-.525.525h-8.324c-.289 0-.524-.235-.524-.525v-10.687c0-1.944-1.581-3.525-3.525-3.525h-10.687c-.289 0-.524-.235-.524-.525z"/><path d="m80.812 51.608h6.735v6.735c0 1.551 1.261 2.812 2.812 2.812h5.393c1.551 0 2.812-1.261 2.812-2.812v-6.735h6.735c1.551 0 2.812-1.261 2.812-2.812v-5.393c0-1.55-1.261-2.812-2.812-2.812h-6.735v-6.735c0-1.55-1.261-2.812-2.812-2.812h-5.393c-1.551 0-2.812 1.261-2.812 2.812v6.735h-6.735c-1.551 0-2.812 1.261-2.812 2.812v5.393c0 1.551 1.261 2.812 2.812 2.812zm.188-8.016h6.735c1.551 0 2.812-1.261 2.812-2.812v-6.735h5.017v6.735c0 1.551 1.261 2.812 2.812 2.812h6.735v5.017h-6.735c-1.55 0-2.812 1.261-2.812 2.812v6.735h-5.017v-6.736c0-1.55-1.261-2.812-2.812-2.812h-6.735z"/><path d="m118.667 47.6h57.667c.828 0 1.5-.671 1.5-1.5s-.672-1.5-1.5-1.5h-57.667c-.829 0-1.5.671-1.5 1.5s.671 1.5 1.5 1.5z"/><path d="m79.5 71.35h97c.828 0 1.5-.671 1.5-1.5s-.672-1.5-1.5-1.5h-97c-.829 0-1.5.671-1.5 1.5s.671 1.5 1.5 1.5z"/><path d="m79.5 82.683h97c.828 0 1.5-.671 1.5-1.5s-.672-1.5-1.5-1.5h-97c-.829 0-1.5.671-1.5 1.5s.671 1.5 1.5 1.5z"/><path d="m79.5 94.017h97c.828 0 1.5-.671 1.5-1.5s-.672-1.5-1.5-1.5h-97c-.829 0-1.5.671-1.5 1.5s.671 1.5 1.5 1.5z"/><path d="m25.89 233.389h-18.5c-.829 0-1.5.671-1.5 1.5s.671 1.5 1.5 1.5h18.5c.829 0 1.5-.671 1.5-1.5s-.672-1.5-1.5-1.5z"/><path d="m248.61 233.389h-18.5c-.828 0-1.5.671-1.5 1.5s.672 1.5 1.5 1.5h18.5c.828 0 1.5-.671 1.5-1.5s-.672-1.5-1.5-1.5z"/><path d="m215.337 233.389h-174.674c-.829 0-1.5.671-1.5 1.5s.671 1.5 1.5 1.5h174.674c.828 0 1.5-.671 1.5-1.5s-.672-1.5-1.5-1.5z"/><path d="m7.39 224.635h53.612 133.998 53.61c.828 0 1.5-.671 1.5-1.5s-.672-1.5-1.5-1.5h-43.418c5.258-3.372 8.758-9.254 8.758-15.95v-100.946c0-.829-.672-1.5-1.5-1.5h-17.95v-82.128c0-.829-.672-1.5-1.5-1.5h-130c-.829 0-1.5.671-1.5 1.5v42.671c-10.966 1.018-19.45 10.227-19.45 21.338v120.563c0 6.633 3.441 12.56 8.755 15.953h-43.415c-.829 0-1.5.671-1.5 1.5s.671 1.499 1.5 1.499zm203.56-18.95c0 8.795-7.155 15.95-15.95 15.95h-123.774c5.247-3.374 8.729-9.264 8.729-15.953v-80.989c0-10.176 8.278-18.455 18.454-18.455h112.541zm-146.45-183.074h127v80.628h-93.091c-11.83 0-21.454 9.625-21.454 21.455v69.758h-12.455zm-6.368 198.752c-7.581-1.379-13.083-7.973-13.083-15.68v-120.563c0-9.463 7.154-17.32 16.45-18.325v129.157c0 .829.671 1.5 1.5 1.5h13.955v8.23c0 8.796-7.156 15.953-15.953 15.953-.922 0-1.86-.089-2.869-.272z"/></g></g></svg>