<?xml version="1.0" encoding="iso-8859-1"?>
<!-- Generator: Adobe Illustrator 19.0.0, SVG Export Plug-In . SVG Version: 6.00 Build 0)  -->
<svg version="1.1" id="Capa_1" xmlns="http://www.w3.org/2000/svg" xmlns:xlink="http://www.w3.org/1999/xlink" x="0px" y="0px"
	 viewBox="0 0 511.806 511.806" style="enable-background:new 0 0 511.806 511.806;" xml:space="preserve">
<g>
	<path style="fill:#336A93;" d="M397.144,61.599h-8.828V18.733c0.439-5.307-1.591-10.521-5.502-14.136
		c-3.911-3.615-9.268-5.227-14.525-4.373L114.662,61.599c-9.751,0-17.655,7.904-17.655,17.655v414.897
		c0,9.751,7.904,17.655,17.655,17.655h282.483c9.751,0,17.655-7.905,17.655-17.655V79.254
		C414.799,69.503,406.895,61.599,397.144,61.599z"/>
	<path style="fill:#5496CE;" d="M114.662,61.599h282.483c9.751,0,17.655,7.904,17.655,17.655v414.897
		c0,9.751-7.905,17.655-17.655,17.655H114.662c-9.751,0-17.655-7.905-17.655-17.655V79.254
		C97.006,69.503,104.911,61.599,114.662,61.599z"/>
	<g>
		<path style="fill:#DADCDA;" d="M292.364,95.547l-8.741-1.237c-2.532-0.358-5.094,0.4-7.025,2.077s-3.039,4.108-3.04,6.665v238.965
			c0,14.626,11.857,26.483,26.483,26.483c14.626,0,26.483-11.857,26.483-26.483V236.086c9.747-0.01,17.645-7.909,17.655-17.655
			v-52.966C344.179,126.879,324.326,100.09,292.364,95.547z"/>
		<path style="fill:#DADCDA;" d="M247.075,94.845c-4.875,0-8.828,3.952-8.828,8.828v44.138c0,4.875-3.952,8.828-8.828,8.828
			s-8.828-3.952-8.828-8.828v-44.138c0-4.875-3.952-8.828-8.828-8.828c-4.875,0-8.828,3.952-8.828,8.828v44.138
			c0,4.875-3.952,8.828-8.828,8.828s-8.828-3.952-8.828-8.828v-44.138c0-4.875-3.952-8.828-8.828-8.828
			c-4.875,0-8.828,3.952-8.828,8.828v70.621c-0.026,12.615,6.713,24.275,17.655,30.552v137.172
			c0,14.626,11.857,26.483,26.483,26.483c14.626,0,26.483-11.857,26.483-26.483V204.845c10.942-6.277,17.681-17.937,17.655-30.552
			v-70.621C255.903,98.797,251.951,94.845,247.075,94.845z"/>
		<path style="fill:#DADCDA;" d="M291.213,439.121H167.627c-4.875,0-8.828-3.952-8.828-8.828s3.952-8.828,8.828-8.828h123.586
			c4.875,0,8.828,3.952,8.828,8.828S296.089,439.121,291.213,439.121z"/>
		<path style="fill:#DADCDA;" d="M344.179,439.121h-17.655c-4.875,0-8.828-3.952-8.828-8.828s3.952-8.828,8.828-8.828h17.655
			c4.875,0,8.828,3.952,8.828,8.828S349.054,439.121,344.179,439.121z"/>
		<path style="fill:#DADCDA;" d="M344.179,474.431h-70.621c-4.875,0-8.828-3.952-8.828-8.828s3.952-8.828,8.828-8.828h70.621
			c4.875,0,8.828,3.952,8.828,8.828S349.054,474.431,344.179,474.431z"/>
		<path style="fill:#DADCDA;" d="M238.248,474.431h-8.828c-4.875,0-8.828-3.952-8.828-8.828s3.952-8.828,8.828-8.828h8.828
			c4.875,0,8.828,3.952,8.828,8.828S243.123,474.431,238.248,474.431z"/>
		<path style="fill:#DADCDA;" d="M194.11,474.431h-26.483c-4.875,0-8.828-3.952-8.828-8.828s3.952-8.828,8.828-8.828h26.483
			c4.875,0,8.828,3.952,8.828,8.828S198.985,474.431,194.11,474.431z"/>
	</g>
</g>
<g>
</g>
<g>
</g>
<g>
</g>
<g>
</g>
<g>
</g>
<g>
</g>
<g>
</g>
<g>
</g>
<g>
</g>
<g>
</g>
<g>
</g>
<g>
</g>
<g>
</g>
<g>
</g>
<g>
</g>
</svg>
