<?xml version="1.0"?>
<svg xmlns="http://www.w3.org/2000/svg" id="Layer_1" data-name="Layer 1" viewBox="0 0 512 512" width="512" height="512"><title>records</title><path d="M425.5,112V446a40,40,0,0,1-40,40h-217a40,40,0,0,1-40-40v-6h210a40,40,0,0,0,40-40V72h7A40,40,0,0,1,425.5,112Z" style="fill:#af593c"/><path d="M378.5,72V400a40,40,0,0,1-40,40h-218a40,40,0,0,1-40-40V92h50a20.059,20.059,0,0,0,20-20V26h188a40,40,0,0,1,40,40Zm-46,64V112a2.006,2.006,0,0,0-2-2h-33a2.006,2.006,0,0,1-2-2V75a2.006,2.006,0,0,0-2-2h-25a2.006,2.006,0,0,0-2,2v33a2.006,2.006,0,0,1-2,2h-35a2.006,2.006,0,0,0-2,2v24a2.006,2.006,0,0,0,2,2h35a2.006,2.006,0,0,1,2,2v36a2.006,2.006,0,0,0,2,2h25a2.006,2.006,0,0,0,2-2V140a2.006,2.006,0,0,1,2-2h33A2.006,2.006,0,0,0,332.5,136Z" style="fill:#e48e66"/><path d="M332.5,112v24a2.006,2.006,0,0,1-2,2h-33a2.006,2.006,0,0,0-2,2v36a2.006,2.006,0,0,1-2,2h-25a2.006,2.006,0,0,1-2-2V140a2.006,2.006,0,0,0-2-2h-35a2.006,2.006,0,0,1-2-2V112a2.006,2.006,0,0,1,2-2h35a2.006,2.006,0,0,0,2-2V75a2.006,2.006,0,0,1,2-2h25a2.006,2.006,0,0,1,2,2v33a2.006,2.006,0,0,0,2,2h33A2.006,2.006,0,0,1,332.5,112Z" style="fill:#f8ec7d"/><path d="M150.5,26V72a20.059,20.059,0,0,1-20,20h-50V89.37L150.07,26Z" style="fill:#f8ec7d"/><path d="M196.5,200h-70a7,7,0,0,1,0-14h70a7,7,0,0,1,0,14Z" style="fill:#3fa9f5"/><path d="M232.5,249h-106a7,7,0,0,1,0-14h106a7,7,0,0,1,0,14Z" style="fill:#3fa9f5"/><path d="M232.5,298h-106a7,7,0,0,1,0-14h106a7,7,0,0,1,0,14Z" style="fill:#3fa9f5"/><path d="M293.5,347h-167a7,7,0,0,1,0-14h167a7,7,0,0,1,0,14Z" style="fill:#3fa9f5"/><path d="M336.5,396h-210a7,7,0,0,1,0-14h210a7,7,0,0,1,0,14Z" style="fill:#3fa9f5"/></svg>
