<?xml version="1.0" encoding="UTF-8"?>
<svg xmlns="http://www.w3.org/2000/svg" xmlns:xlink="http://www.w3.org/1999/xlink" width="140pt" height="140pt" viewBox="0 0 140 140" version="1.1">
<g id="surface1">
<path style=" stroke:none;fill-rule:nonzero;fill:rgb(97.647059%,67.058824%,49.803922%);fill-opacity:1;" d="M 28.1875 121.957031 C 28.105469 121.957031 28.023438 121.933594 27.949219 121.882812 L 14.035156 112.3125 C 13.84375 112.175781 13.792969 111.914062 13.925781 111.71875 L 22.238281 99.636719 C 22.320312 99.519531 22.453125 99.453125 22.589844 99.453125 C 22.636719 99.453125 22.679688 99.457031 22.726562 99.472656 L 39.390625 105.042969 C 39.519531 105.085938 39.617188 105.183594 39.660156 105.3125 C 39.703125 105.4375 39.683594 105.578125 39.605469 105.6875 L 28.542969 121.773438 C 28.457031 121.894531 28.324219 121.957031 28.1875 121.957031 "/>
<path style=" stroke:none;fill-rule:nonzero;fill:rgb(3.921569%,16.470588%,31.372549%);fill-opacity:1;" d="M 22.589844 99.023438 C 22.316406 99.023438 22.050781 99.160156 21.886719 99.394531 L 13.574219 111.476562 C 13.308594 111.863281 13.40625 112.394531 13.792969 112.664062 L 27.707031 122.234375 C 27.855469 122.335938 28.023438 122.382812 28.1875 122.382812 C 28.460938 122.382812 28.726562 122.253906 28.890625 122.015625 L 39.957031 105.929688 C 40.109375 105.710938 40.148438 105.429688 40.066406 105.175781 C 39.980469 104.921875 39.78125 104.722656 39.527344 104.636719 L 22.859375 99.070312 C 22.773438 99.039062 22.679688 99.023438 22.589844 99.023438 Z M 22.589844 99.878906 L 39.257812 105.445312 L 28.191406 121.53125 L 14.277344 111.960938 L 22.589844 99.878906 "/>
<path style=" stroke:none;fill-rule:nonzero;fill:rgb(97.647059%,67.058824%,49.803922%);fill-opacity:1;" d="M 15.796875 126.4375 C 15.710938 126.4375 15.625 126.410156 15.550781 126.359375 C 15.421875 126.269531 15.355469 126.117188 15.375 125.964844 C 16.09375 119.726562 17.089844 109.546875 16.761719 108.332031 C 16.671875 108.242188 16.621094 108.109375 16.636719 107.976562 C 17.183594 103.683594 16.457031 100.828125 15.75 98.066406 C 14.882812 94.664062 14.0625 91.445312 15.820312 86.132812 C 18.042969 79.414062 18.425781 76.132812 18.679688 73.960938 C 18.777344 73.105469 18.859375 72.429688 19.023438 71.796875 C 19.199219 70.582031 19.269531 69.746094 19.316406 69.132812 C 19.421875 67.855469 19.460938 67.375 20.503906 67.136719 C 20.90625 67.042969 21.292969 66.996094 21.652344 66.996094 C 22.605469 66.996094 23.402344 67.324219 24.023438 67.972656 C 25.300781 69.308594 25.804688 72 25.609375 76.445312 C 25.78125 79.570312 25.511719 81.722656 25.113281 84.417969 C 25.046875 84.871094 25.09375 85.230469 25.242188 85.40625 C 25.320312 85.492188 25.425781 85.535156 25.566406 85.535156 C 25.964844 85.535156 26.660156 85.195312 27.40625 84.246094 C 29.613281 81.429688 33.972656 76.703125 38.320312 76.703125 C 40.632812 76.703125 42.621094 78.023438 44.230469 80.625 C 44.605469 81.234375 45.15625 82.023438 45.789062 82.9375 C 49.300781 88 55.183594 96.472656 51.199219 101.214844 C 44.007812 109.777344 32.113281 118.6875 31.992188 118.773438 C 31.972656 118.789062 31.945312 118.804688 31.921875 118.816406 L 15.980469 126.398438 C 15.921875 126.425781 15.859375 126.4375 15.796875 126.4375 "/>
<path style=" stroke:none;fill-rule:nonzero;fill:rgb(3.921569%,16.470588%,31.372549%);fill-opacity:1;" d="M 21.652344 66.570312 C 21.261719 66.570312 20.84375 66.621094 20.40625 66.722656 C 19.058594 67.03125 18.996094 67.808594 18.890625 69.097656 C 18.84375 69.699219 18.777344 70.523438 18.605469 71.710938 C 18.4375 72.367188 18.355469 73.050781 18.253906 73.910156 C 18.003906 76.066406 17.625 79.324219 15.414062 85.996094 C 13.617188 91.429688 14.453125 94.707031 15.335938 98.175781 C 16.03125 100.894531 16.75 103.710938 16.214844 107.921875 C 16.1875 108.136719 16.242188 108.34375 16.359375 108.511719 C 16.574219 109.902344 15.824219 118.324219 14.949219 125.914062 C 14.914062 126.222656 15.050781 126.527344 15.300781 126.707031 C 15.449219 126.8125 15.621094 126.867188 15.796875 126.867188 C 15.921875 126.867188 16.046875 126.839844 16.164062 126.785156 L 32.105469 119.203125 C 32.15625 119.179688 32.203125 119.148438 32.25 119.117188 C 32.367188 119.027344 44.304688 110.085938 51.527344 101.488281 C 55.71875 96.496094 49.722656 87.855469 46.140625 82.695312 C 45.507812 81.785156 44.960938 81 44.59375 80.402344 C 42.898438 77.664062 40.789062 76.277344 38.320312 76.277344 C 33.789062 76.277344 29.328125 81.105469 27.070312 83.984375 C 26.371094 84.875 25.78125 85.109375 25.566406 85.109375 C 25.5625 85.109375 25.558594 85.109375 25.554688 85.109375 C 25.527344 85.042969 25.480469 84.847656 25.535156 84.480469 C 25.9375 81.765625 26.210938 79.597656 26.035156 76.441406 C 26.238281 71.824219 25.710938 69.121094 24.332031 67.675781 C 23.628906 66.941406 22.726562 66.570312 21.652344 66.570312 Z M 21.652344 67.421875 C 24.90625 67.421875 25.394531 71.65625 25.183594 76.449219 C 25.355469 79.554688 25.089844 81.671875 24.691406 84.355469 C 24.53125 85.417969 24.929688 85.960938 25.566406 85.960938 C 26.164062 85.960938 26.976562 85.484375 27.742188 84.507812 C 29.507812 82.253906 33.945312 77.128906 38.320312 77.128906 C 40.261719 77.128906 42.1875 78.136719 43.867188 80.847656 C 46.269531 84.730469 55.359375 95.597656 50.875 100.941406 C 43.632812 109.5625 31.738281 118.433594 31.738281 118.433594 L 15.796875 126.011719 C 15.796875 126.011719 17.851562 108.179688 17.0625 108.027344 C 18.296875 98.316406 13.097656 95.714844 16.222656 86.265625 C 19.351562 76.8125 18.871094 74.023438 19.441406 71.882812 C 20 68.054688 19.503906 67.804688 20.597656 67.550781 C 20.976562 67.464844 21.328125 67.421875 21.652344 67.421875 "/>
<path style=" stroke:none;fill-rule:nonzero;fill:rgb(72.54902%,71.764706%,72.156863%);fill-opacity:1;" d="M 26.828125 103.632812 C 24.652344 103.632812 22.878906 101.859375 22.878906 99.683594 L 22.878906 50.167969 C 22.878906 47.992188 24.652344 46.21875 26.828125 46.21875 L 52.945312 46.21875 C 55.121094 46.21875 56.894531 47.992188 56.894531 50.167969 L 56.894531 99.683594 C 56.894531 101.859375 55.121094 103.632812 52.945312 103.632812 L 26.828125 103.632812 "/>
<path style=" stroke:none;fill-rule:nonzero;fill:rgb(3.921569%,16.470588%,31.372549%);fill-opacity:1;" d="M 52.945312 45.792969 L 26.828125 45.792969 C 24.414062 45.792969 22.453125 47.753906 22.453125 50.167969 L 22.453125 99.683594 C 22.453125 102.097656 24.414062 104.058594 26.828125 104.058594 L 52.945312 104.058594 C 55.355469 104.058594 57.320312 102.097656 57.320312 99.683594 L 57.320312 50.167969 C 57.320312 47.753906 55.355469 45.792969 52.945312 45.792969 Z M 52.945312 46.644531 C 54.890625 46.644531 56.46875 48.222656 56.46875 50.167969 L 56.46875 99.683594 C 56.46875 101.628906 54.890625 103.207031 52.945312 103.207031 L 26.828125 103.207031 C 24.882812 103.207031 23.304688 101.628906 23.304688 99.683594 L 23.304688 50.167969 C 23.304688 48.222656 24.882812 46.644531 26.828125 46.644531 L 52.945312 46.644531 "/>
<path style=" stroke:none;fill-rule:nonzero;fill:rgb(54.509804%,56.470588%,58.039216%);fill-opacity:1;" d="M 52.945312 46.644531 L 48.589844 46.644531 C 51.871094 53.621094 52.042969 62.476562 50.402344 69.847656 C 48.496094 78.421875 43.207031 89.136719 33.292969 90.070312 C 29.9375 90.386719 26.492188 89.699219 23.304688 88.417969 L 23.304688 99.683594 C 23.304688 101.628906 24.882812 103.207031 26.828125 103.207031 L 52.945312 103.207031 C 54.890625 103.207031 56.46875 101.628906 56.46875 99.683594 L 56.46875 50.167969 C 56.46875 48.222656 54.890625 46.644531 52.945312 46.644531 "/>
<path style=" stroke:none;fill-rule:nonzero;fill:rgb(100%,100%,100%);fill-opacity:1;" d="M 25.054688 97.65625 C 24.816406 97.65625 24.625 97.464844 24.625 97.230469 L 24.625 52.621094 C 24.625 52.386719 24.816406 52.195312 25.054688 52.195312 L 54.71875 52.195312 C 54.953125 52.195312 55.144531 52.386719 55.144531 52.621094 L 55.144531 97.230469 C 55.144531 97.464844 54.953125 97.65625 54.71875 97.65625 L 25.054688 97.65625 "/>
<path style=" stroke:none;fill-rule:nonzero;fill:rgb(3.921569%,16.470588%,31.372549%);fill-opacity:1;" d="M 54.71875 51.769531 L 25.054688 51.769531 C 24.582031 51.769531 24.199219 52.148438 24.199219 52.621094 L 24.199219 97.230469 C 24.199219 97.703125 24.582031 98.082031 25.054688 98.082031 L 54.71875 98.082031 C 55.191406 98.082031 55.574219 97.703125 55.574219 97.230469 L 55.574219 52.621094 C 55.574219 52.148438 55.191406 51.769531 54.71875 51.769531 Z M 54.71875 52.621094 L 54.71875 97.230469 L 25.054688 97.230469 L 25.054688 52.621094 L 54.71875 52.621094 "/>
<path style=" stroke:none;fill-rule:nonzero;fill:rgb(85.098039%,89.019608%,90.980392%);fill-opacity:1;" d="M 50.589844 52.621094 C 51.832031 58.28125 51.601562 64.460938 50.402344 69.847656 C 48.496094 78.421875 43.207031 89.136719 33.292969 90.070312 C 30.542969 90.332031 27.730469 89.914062 25.054688 89.050781 L 25.054688 97.230469 L 54.71875 97.230469 L 54.71875 52.621094 L 50.589844 52.621094 "/>
<path style=" stroke:none;fill-rule:nonzero;fill:rgb(3.921569%,16.470588%,31.372549%);fill-opacity:1;" d="M 41.78125 100.269531 C 41.78125 101.316406 40.933594 102.164062 39.886719 102.164062 C 38.839844 102.164062 37.992188 101.316406 37.992188 100.269531 C 37.992188 99.222656 38.839844 98.375 39.886719 98.375 C 40.933594 98.375 41.78125 99.222656 41.78125 100.269531 "/>
<path style=" stroke:none;fill-rule:nonzero;fill:rgb(3.921569%,16.470588%,31.372549%);fill-opacity:1;" d="M 34.921875 49.507812 C 34.921875 50.019531 34.503906 50.4375 33.992188 50.4375 C 33.476562 50.4375 33.0625 50.019531 33.0625 49.507812 C 33.0625 48.992188 33.476562 48.578125 33.992188 48.578125 C 34.503906 48.578125 34.921875 48.992188 34.921875 49.507812 "/>
<path style=" stroke:none;fill-rule:nonzero;fill:rgb(3.921569%,16.470588%,31.372549%);fill-opacity:1;" d="M 46.710938 49.507812 C 46.710938 49.816406 46.460938 50.066406 46.152344 50.066406 L 37.671875 50.066406 C 37.363281 50.066406 37.113281 49.816406 37.113281 49.507812 C 37.113281 49.195312 37.363281 48.945312 37.671875 48.945312 L 46.152344 48.945312 C 46.460938 48.945312 46.710938 49.195312 46.710938 49.507812 "/>
<path style=" stroke:none;fill-rule:nonzero;fill:rgb(25.882353%,74.901961%,68.627451%);fill-opacity:1;" d="M 51.960938 74.925781 C 51.960938 78.21875 50.640625 81.203125 48.503906 83.382812 C 46.316406 85.609375 43.273438 86.996094 39.90625 87 L 39.886719 87 C 39.691406 87 39.5 86.996094 39.308594 86.984375 C 36.105469 86.835938 33.234375 85.4375 31.160156 83.269531 C 29.085938 81.101562 27.8125 78.164062 27.8125 74.925781 C 27.8125 68.257812 33.21875 62.851562 39.886719 62.851562 C 46.554688 62.851562 51.960938 68.257812 51.960938 74.925781 "/>
<path style=" stroke:none;fill-rule:nonzero;fill:rgb(100%,100%,100%);fill-opacity:1;" d="M 41.085938 78.972656 C 40.265625 78.804688 39.683594 78.101562 39.234375 77.445312 C 38.585938 76.496094 38.074219 75.472656 37.707031 74.382812 C 37.425781 73.542969 37.136719 72.539062 37.5625 71.695312 C 38.105469 70.613281 40.128906 71.144531 40.347656 69.777344 C 40.433594 68.917969 39.019531 66.707031 38.390625 66.191406 C 37.6875 65.523438 36.414062 66.203125 35.46875 66.722656 C 34.144531 67.480469 33.699219 68.9375 33.890625 70.355469 C 34.089844 71.835938 34.605469 73.175781 35.273438 74.5 C 36.019531 75.980469 36.753906 77.46875 37.4375 78.976562 C 38.449219 81.195312 40.632812 84.925781 43.691406 83.695312 C 44.683594 83.277344 46.007812 82.699219 45.921875 81.734375 C 45.90625 80.921875 45.046875 78.4375 44.320312 77.972656 C 43.109375 77.300781 42.277344 79.214844 41.085938 78.972656 "/>
<path style=" stroke:none;fill-rule:nonzero;fill:rgb(25.882353%,74.901961%,68.627451%);fill-opacity:1;" d="M 39.3125 69.917969 C 39.296875 69.925781 39.277344 69.929688 39.261719 69.933594 C 39.164062 69.945312 39.078125 69.878906 39.0625 69.78125 C 38.84375 68.085938 37.65625 66.859375 37.644531 66.847656 C 37.574219 66.777344 37.578125 66.667969 37.644531 66.597656 C 37.714844 66.53125 37.824219 66.53125 37.890625 66.601562 C 37.945312 66.65625 39.175781 67.921875 39.410156 69.738281 C 39.421875 69.8125 39.378906 69.886719 39.3125 69.917969 "/>
<path style=" stroke:none;fill-rule:nonzero;fill:rgb(25.882353%,74.901961%,68.627451%);fill-opacity:1;" d="M 45.222656 82.109375 C 45.203125 82.117188 45.1875 82.125 45.167969 82.125 C 45.070312 82.136719 44.984375 82.070312 44.972656 81.976562 C 44.96875 81.957031 44.742188 80.265625 43.550781 79.039062 C 43.484375 78.972656 43.484375 78.859375 43.550781 78.792969 C 43.621094 78.726562 43.730469 78.726562 43.800781 78.796875 C 45.078125 80.105469 45.308594 81.859375 45.316406 81.929688 C 45.328125 82.007812 45.285156 82.078125 45.222656 82.109375 "/>
<path style=" stroke:none;fill-rule:nonzero;fill:rgb(97.647059%,67.058824%,49.803922%);fill-opacity:1;" d="M 58.449219 78.269531 C 58.175781 78.269531 57.910156 78.199219 57.65625 78.054688 C 55.367188 76.753906 52.792969 75.867188 52.472656 75.777344 C 51.445312 75.648438 50.289062 74.761719 50.371094 72.671875 C 50.445312 70.703125 51.546875 70 52.550781 70 C 52.632812 70 52.714844 70.003906 52.796875 70.011719 L 52.851562 70.011719 C 52.914062 70.011719 52.996094 70.007812 53.101562 70.007812 C 54.378906 70.007812 56.878906 70.207031 59.238281 71.550781 C 59.359375 71.617188 59.480469 71.703125 59.589844 71.804688 C 60.480469 72.601562 60.894531 74.308594 60.582031 75.859375 C 60.292969 77.300781 59.433594 78.269531 58.449219 78.269531 "/>
<path style=" stroke:none;fill-rule:nonzero;fill:rgb(3.921569%,16.470588%,31.372549%);fill-opacity:1;" d="M 52.550781 69.574219 C 51.402344 69.574219 50.03125 70.378906 49.941406 72.65625 C 49.855469 74.863281 51.09375 76.015625 52.382812 76.195312 C 52.8125 76.324219 55.269531 77.1875 57.449219 78.425781 C 57.765625 78.605469 58.101562 78.695312 58.449219 78.695312 C 59.664062 78.695312 60.664062 77.617188 61 75.945312 C 61.347656 74.226562 60.886719 72.394531 59.878906 71.488281 C 59.742188 71.363281 59.597656 71.261719 59.449219 71.175781 C 57.003906 69.789062 54.421875 69.582031 53.101562 69.582031 C 52.992188 69.582031 52.910156 69.582031 52.847656 69.585938 L 52.800781 69.585938 C 52.714844 69.578125 52.632812 69.574219 52.550781 69.574219 Z M 52.550781 70.425781 C 52.617188 70.425781 52.683594 70.429688 52.75 70.4375 C 52.757812 70.4375 52.765625 70.4375 52.78125 70.4375 C 52.832031 70.4375 52.941406 70.433594 53.101562 70.433594 C 54.019531 70.433594 56.59375 70.535156 59.027344 71.917969 C 59.125 71.972656 59.21875 72.042969 59.308594 72.121094 C 60.074219 72.8125 60.453125 74.347656 60.164062 75.773438 C 59.910156 77.042969 59.203125 77.84375 58.449219 77.84375 C 58.257812 77.84375 58.0625 77.792969 57.867188 77.683594 C 55.378906 76.269531 52.625 75.363281 52.550781 75.355469 C 51.550781 75.246094 50.730469 74.367188 50.796875 72.6875 C 50.855469 71.128906 51.636719 70.425781 52.550781 70.425781 "/>
<path style=" stroke:none;fill-rule:nonzero;fill:rgb(97.647059%,67.058824%,49.803922%);fill-opacity:1;" d="M 58.398438 83.882812 C 58.277344 83.882812 58.160156 83.871094 58.042969 83.84375 C 56.421875 83.457031 54.328125 82.855469 51.8125 82.054688 C 51.726562 82.023438 51.664062 82.007812 51.632812 81.996094 C 50.570312 81.820312 49.488281 80.914062 49.59375 78.882812 C 49.699219 76.960938 50.777344 76.277344 51.757812 76.277344 C 51.867188 76.277344 51.980469 76.285156 52.09375 76.300781 C 52.105469 76.304688 52.191406 76.304688 52.320312 76.308594 C 53.285156 76.328125 56.222656 76.390625 58.746094 76.988281 C 58.882812 77.023438 59.015625 77.074219 59.144531 77.140625 C 60.132812 77.664062 60.753906 79.238281 60.613281 80.878906 C 60.46875 82.621094 59.535156 83.882812 58.398438 83.882812 "/>
<path style=" stroke:none;fill-rule:nonzero;fill:rgb(3.921569%,16.470588%,31.372549%);fill-opacity:1;" d="M 51.757812 75.851562 C 50.636719 75.851562 49.289062 76.640625 49.171875 78.859375 C 49.046875 81.15625 50.347656 82.203125 51.53125 82.410156 C 51.566406 82.421875 51.617188 82.4375 51.683594 82.460938 C 54.207031 83.265625 56.316406 83.871094 57.945312 84.257812 C 58.09375 84.292969 58.246094 84.3125 58.398438 84.3125 C 59.761719 84.3125 60.875 82.882812 61.039062 80.914062 C 61.195312 79.082031 60.496094 77.375 59.34375 76.761719 C 59.183594 76.679688 59.015625 76.613281 58.84375 76.574219 C 56.277344 75.964844 53.308594 75.902344 52.332031 75.878906 C 52.234375 75.878906 52.160156 75.878906 52.117188 75.875 C 51.996094 75.859375 51.875 75.851562 51.757812 75.851562 Z M 51.757812 76.703125 C 51.847656 76.703125 51.9375 76.710938 52.027344 76.726562 C 52.179688 76.746094 55.730469 76.710938 58.648438 77.40625 C 58.75 77.429688 58.847656 77.464844 58.945312 77.515625 C 59.773438 77.957031 60.316406 79.347656 60.1875 80.84375 C 60.0625 82.359375 59.285156 83.457031 58.398438 83.457031 C 58.3125 83.457031 58.226562 83.449219 58.140625 83.429688 C 55.316406 82.757812 51.761719 81.585938 51.726562 81.578125 C 50.730469 81.429688 49.933594 80.578125 50.023438 78.90625 C 50.101562 77.386719 50.871094 76.703125 51.757812 76.703125 "/>
<path style=" stroke:none;fill-rule:nonzero;fill:rgb(97.647059%,67.058824%,49.803922%);fill-opacity:1;" d="M 58.25 89.585938 C 56.839844 89.585938 54.699219 89.09375 51.894531 88.125 C 51.800781 88.09375 51.738281 88.070312 51.714844 88.0625 C 50.640625 87.78125 49.566406 86.554688 49.753906 84.53125 C 49.945312 82.507812 51.101562 82.082031 52.042969 82.082031 C 52.101562 82.082031 52.164062 82.082031 52.222656 82.085938 C 52.230469 82.085938 52.28125 82.09375 52.371094 82.105469 C 54.988281 82.457031 57.078125 82.648438 58.25 82.648438 C 59.503906 82.648438 60.488281 84.171875 60.488281 86.117188 C 60.488281 88.0625 59.503906 89.585938 58.25 89.585938 "/>
<path style=" stroke:none;fill-rule:nonzero;fill:rgb(3.921569%,16.470588%,31.372549%);fill-opacity:1;" d="M 52.042969 81.65625 C 51.128906 81.65625 49.5625 82.023438 49.328125 84.492188 C 49.148438 86.429688 50.078125 88.0625 51.597656 88.472656 C 51.625 88.484375 51.679688 88.503906 51.757812 88.527344 C 54.605469 89.511719 56.789062 90.011719 58.25 90.011719 C 59.746094 90.011719 60.914062 88.300781 60.914062 86.117188 C 60.914062 83.933594 59.746094 82.222656 58.25 82.222656 C 57.09375 82.222656 55.027344 82.03125 52.429688 81.683594 C 52.316406 81.667969 52.253906 81.660156 52.25 81.660156 C 52.179688 81.65625 52.109375 81.65625 52.042969 81.65625 Z M 52.042969 82.507812 C 52.09375 82.507812 52.148438 82.507812 52.199219 82.511719 C 52.242188 82.515625 56.203125 83.074219 58.25 83.074219 C 59.25 83.074219 60.0625 84.4375 60.0625 86.117188 C 60.0625 87.796875 59.25 89.15625 58.25 89.15625 C 55.921875 89.15625 52.003906 87.699219 51.832031 87.652344 C 50.84375 87.390625 50.023438 86.230469 50.179688 84.574219 C 50.324219 83 51.089844 82.507812 52.042969 82.507812 "/>
<path style=" stroke:none;fill-rule:nonzero;fill:rgb(97.647059%,67.058824%,49.803922%);fill-opacity:1;" d="M 53.457031 95.375 C 52.273438 95.375 51.449219 94.382812 51.363281 92.847656 C 51.269531 91.199219 52.082031 89.902344 53.347656 89.675781 C 53.566406 89.601562 55.480469 88.941406 57.386719 88.085938 C 57.605469 87.988281 57.835938 87.9375 58.066406 87.9375 C 59.09375 87.9375 59.953125 88.902344 60.207031 90.332031 C 60.503906 92.039062 59.839844 93.777344 58.6875 94.292969 C 57.269531 94.925781 55.589844 95.292969 53.839844 95.347656 L 53.773438 95.351562 C 53.667969 95.367188 53.5625 95.375 53.457031 95.375 "/>
<path style=" stroke:none;fill-rule:nonzero;fill:rgb(3.921569%,16.470588%,31.372549%);fill-opacity:1;" d="M 58.066406 87.511719 C 57.773438 87.511719 57.488281 87.574219 57.214844 87.699219 C 55.382812 88.515625 53.546875 89.15625 53.242188 89.261719 C 51.78125 89.535156 50.832031 91.007812 50.9375 92.871094 C 51.058594 95.035156 52.371094 95.800781 53.457031 95.800781 C 53.574219 95.800781 53.695312 95.792969 53.816406 95.777344 L 53.855469 95.773438 C 55.660156 95.71875 57.390625 95.339844 58.863281 94.679688 C 60.183594 94.089844 60.957031 92.148438 60.625 90.261719 C 60.335938 88.617188 59.308594 87.511719 58.066406 87.511719 Z M 58.066406 88.363281 C 58.851562 88.363281 59.566406 89.167969 59.785156 90.40625 C 60.046875 91.90625 59.480469 93.46875 58.515625 93.902344 C 56.179688 94.949219 53.824219 94.910156 53.726562 94.925781 C 53.636719 94.941406 53.546875 94.949219 53.457031 94.949219 C 52.582031 94.949219 51.867188 94.234375 51.789062 92.824219 C 51.699219 91.273438 52.457031 90.25 53.453125 90.089844 C 53.472656 90.089844 55.546875 89.378906 57.5625 88.476562 C 57.730469 88.402344 57.898438 88.363281 58.066406 88.363281 "/>
<path style=" stroke:none;fill-rule:nonzero;fill:rgb(100%,100%,100%);fill-opacity:1;" d="M 29.851562 125.421875 C 29.769531 125.421875 29.6875 125.398438 29.617188 125.355469 L 10.371094 112.96875 C 10.269531 112.902344 10.203125 112.800781 10.183594 112.679688 C 10.164062 112.5625 10.191406 112.441406 10.265625 112.347656 C 10.710938 111.777344 11.070312 111.332031 11.394531 110.9375 C 14.382812 107.332031 15.5 106.914062 16.085938 106.914062 C 16.125 106.914062 16.164062 106.917969 16.199219 106.921875 C 16.433594 106.9375 16.761719 107.011719 17.175781 107.15625 C 17.558594 107.292969 17.996094 107.472656 18.476562 107.695312 C 18.484375 107.699219 18.507812 107.710938 18.511719 107.714844 C 19.511719 108.175781 20.75 108.84375 22.082031 109.640625 C 23.9375 110.738281 25.902344 112.042969 27.617188 113.308594 C 29.929688 115.015625 32.742188 117.367188 33.042969 118.875 C 33.097656 119.121094 33.21875 119.710938 31.152344 123.523438 C 30.890625 124.007812 30.585938 124.558594 30.21875 125.207031 C 30.164062 125.308594 30.066406 125.382812 29.953125 125.410156 C 29.917969 125.417969 29.882812 125.421875 29.851562 125.421875 "/>
<path style=" stroke:none;fill-rule:nonzero;fill:rgb(3.921569%,16.470588%,31.372549%);fill-opacity:1;" d="M 16.085938 106.488281 C 15.3125 106.488281 14.113281 106.984375 11.066406 110.664062 C 10.738281 111.0625 10.378906 111.511719 9.929688 112.085938 C 9.78125 112.273438 9.722656 112.515625 9.761719 112.753906 C 9.800781 112.988281 9.9375 113.199219 10.140625 113.328125 L 29.386719 125.710938 C 29.527344 125.800781 29.6875 125.847656 29.851562 125.847656 C 29.917969 125.847656 29.988281 125.839844 30.054688 125.824219 C 30.28125 125.765625 30.476562 125.621094 30.589844 125.414062 C 30.957031 124.765625 31.265625 124.214844 31.527344 123.722656 C 31.53125 123.722656 31.53125 123.71875 31.53125 123.71875 C 33.503906 120.078125 33.5625 119.261719 33.460938 118.78125 C 33.199219 117.472656 31.320312 115.511719 27.875 112.964844 C 26.144531 111.691406 24.164062 110.378906 22.296875 109.273438 C 20.964844 108.476562 19.722656 107.808594 18.707031 107.332031 C 18.699219 107.328125 18.691406 107.324219 18.683594 107.324219 C 18.675781 107.316406 18.667969 107.3125 18.65625 107.308594 C 18.164062 107.078125 17.714844 106.894531 17.316406 106.753906 C 16.867188 106.597656 16.519531 106.515625 16.226562 106.496094 C 16.179688 106.492188 16.132812 106.488281 16.085938 106.488281 Z M 16.085938 107.339844 C 16.109375 107.339844 16.132812 107.34375 16.152344 107.34375 C 16.378906 107.359375 16.675781 107.433594 17.035156 107.5625 C 17.398438 107.6875 17.824219 107.863281 18.296875 108.082031 C 18.304688 108.085938 18.3125 108.089844 18.324219 108.09375 L 18.324219 108.097656 C 19.335938 108.566406 20.558594 109.226562 21.863281 110.007812 C 23.667969 111.074219 25.621094 112.363281 27.367188 113.652344 C 30.144531 115.707031 32.386719 117.765625 32.625 118.957031 C 32.726562 119.4375 32 121.0625 30.777344 123.320312 C 30.496094 123.84375 30.179688 124.410156 29.851562 124.996094 L 10.601562 112.609375 C 10.988281 112.121094 11.363281 111.644531 11.722656 111.210938 C 13.675781 108.855469 15.269531 107.339844 16.085938 107.339844 "/>
<path style=" stroke:none;fill-rule:nonzero;fill:rgb(85.098039%,89.019608%,90.980392%);fill-opacity:1;" d="M 32.625 118.957031 C 32.386719 117.765625 30.144531 115.707031 27.367188 113.652344 C 27.289062 113.59375 27.203125 113.539062 27.125 113.480469 C 27.007812 114.546875 26.859375 115.609375 26.648438 116.664062 C 26.292969 118.449219 25.734375 120.199219 25.046875 121.90625 L 29.851562 124.996094 C 30.179688 124.410156 30.496094 123.84375 30.777344 123.320312 C 32 121.0625 32.726562 119.4375 32.625 118.957031 "/>
<path style=" stroke:none;fill-rule:nonzero;fill:rgb(39.215686%,80.392157%,96.078431%);fill-opacity:1;" d="M 31.425781 123.691406 C 31.382812 121.585938 28.359375 118.789062 25.835938 116.808594 C 25.832031 116.804688 25.828125 116.804688 25.820312 116.800781 C 23.945312 115.335938 21.765625 113.875 19.683594 112.683594 C 18.199219 111.828125 16.800781 111.128906 15.636719 110.664062 C 15.621094 110.660156 15.585938 110.644531 15.582031 110.640625 C 15.039062 110.425781 14.527344 110.257812 14.058594 110.140625 C 13.667969 110.046875 13.347656 110.003906 13.074219 110.003906 C 12.996094 110.003906 12.925781 110.007812 12.878906 110.011719 C 12.449219 110.03125 11.300781 110.078125 6.167969 116.757812 C 5.4375 117.707031 4.691406 118.707031 3.945312 119.726562 C 3.347656 120.546875 1.859375 122.59375 0 125.167969 L 0 139.972656 L 21.742188 139.972656 C 24.800781 135.582031 27.570312 131.585938 28.089844 130.671875 C 28.09375 130.664062 28.101562 130.65625 28.105469 130.648438 C 31.460938 124.769531 31.4375 123.980469 31.425781 123.691406 "/>
<path style=" stroke:none;fill-rule:nonzero;fill:rgb(3.921569%,16.470588%,31.372549%);fill-opacity:1;" d="M 31.855469 123.671875 C 31.804688 121.410156 28.695312 118.507812 26.097656 116.472656 C 26.089844 116.46875 26.082031 116.460938 26.078125 116.457031 C 24.1875 114.984375 21.992188 113.511719 19.894531 112.3125 C 18.398438 111.449219 16.984375 110.746094 15.804688 110.273438 C 15.792969 110.265625 15.777344 110.261719 15.761719 110.253906 C 15.753906 110.25 15.746094 110.25 15.738281 110.246094 C 15.179688 110.023438 14.648438 109.847656 14.167969 109.730469 C 13.734375 109.625 13.378906 109.578125 13.074219 109.578125 C 12.992188 109.578125 12.914062 109.578125 12.839844 109.585938 C 12.253906 109.613281 11.019531 109.75 5.828125 116.496094 C 5.097656 117.449219 4.347656 118.449219 3.601562 119.472656 C 3.183594 120.050781 1.804688 121.945312 0 124.441406 L 0 125.894531 C 2.074219 123.03125 3.726562 120.753906 4.292969 119.976562 C 5.058594 118.921875 5.800781 117.933594 6.507812 117.015625 C 9.546875 113.058594 11.925781 110.480469 12.898438 110.4375 C 12.953125 110.433594 13.011719 110.429688 13.074219 110.429688 C 13.320312 110.429688 13.617188 110.472656 13.960938 110.554688 C 14.386719 110.664062 14.878906 110.820312 15.425781 111.039062 C 15.4375 111.046875 15.445312 111.046875 15.453125 111.050781 L 15.457031 111.050781 C 16.621094 111.515625 18.007812 112.207031 19.472656 113.054688 C 21.5 114.210938 23.664062 115.65625 25.570312 117.144531 L 25.574219 117.144531 C 28.605469 119.519531 30.964844 122.019531 31 123.699219 C 31.023438 124.371094 29.757812 126.890625 27.734375 130.433594 L 27.734375 130.4375 C 27.199219 131.375 24.351562 135.480469 21.21875 139.972656 L 22.261719 139.972656 C 25.324219 135.574219 27.917969 131.828125 28.46875 130.871094 C 28.46875 130.867188 28.472656 130.863281 28.476562 130.859375 C 31.894531 124.875 31.867188 124.0625 31.855469 123.671875 "/>
<path style=" stroke:none;fill-rule:nonzero;fill:rgb(27.843137%,71.764706%,89.019608%);fill-opacity:1;" d="M 21.21875 139.972656 C 24.351562 135.480469 27.199219 131.375 27.734375 130.4375 L 27.734375 130.433594 C 29.757812 126.890625 31.023438 124.371094 31 123.699219 C 30.96875 122.171875 29.015625 119.972656 26.390625 117.804688 C 25.679688 120.671875 17.210938 133.410156 12.933594 139.972656 L 21.21875 139.972656 "/>
<path style=" stroke:none;fill-rule:nonzero;fill:rgb(97.647059%,67.058824%,49.803922%);fill-opacity:1;" d="M 65.039062 137.945312 C 64.984375 137.945312 64.925781 137.933594 64.875 137.910156 C 64.765625 137.867188 64.679688 137.777344 64.640625 137.667969 L 61.703125 129.800781 C 61.566406 129.808594 61.429688 129.808594 61.292969 129.808594 C 59.839844 129.808594 58.394531 129.433594 57.21875 128.746094 C 57.207031 128.738281 57.195312 128.734375 57.183594 128.726562 C 54.476562 127.222656 51.5 122.636719 50.230469 120.675781 C 50.003906 120.328125 49.824219 120.054688 49.726562 119.914062 L 45.726562 114.488281 C 45.132812 113.667969 44.898438 112.671875 45.058594 111.675781 C 45.21875 110.683594 45.757812 109.8125 46.574219 109.222656 C 47.835938 108.3125 48.066406 108.144531 48.636719 107.917969 L 47.90625 105.941406 L 41.929688 88.09375 C 40.839844 85.058594 41.308594 82.785156 43.195312 82.027344 C 43.710938 81.816406 44.207031 81.710938 44.667969 81.710938 C 47.011719 81.710938 47.945312 84.308594 48.390625 85.558594 L 52.324219 96.679688 C 52.671875 95.664062 53.457031 94.8125 54.539062 94.421875 C 54.9375 94.28125 55.351562 94.207031 55.769531 94.207031 C 56.714844 94.207031 57.605469 94.570312 58.273438 95.207031 C 58.433594 93.863281 59.335938 92.699219 60.65625 92.226562 C 61.054688 92.082031 61.46875 92.011719 61.886719 92.011719 C 62.867188 92.011719 63.78125 92.410156 64.449219 93.070312 C 64.691406 92.054688 65.574219 91.214844 67.007812 90.691406 C 67.40625 90.546875 67.804688 90.472656 68.183594 90.472656 C 70.8125 90.472656 72.042969 93.894531 72.566406 95.355469 C 72.59375 95.4375 74.960938 102.601562 75.730469 106.125 C 76.347656 108.925781 77.183594 114.863281 77.300781 118.03125 C 77.34375 119.265625 77.417969 120.238281 77.480469 121.023438 C 77.558594 122.03125 77.609375 122.726562 77.542969 123.261719 L 80.722656 130.375 C 80.773438 130.484375 80.773438 130.609375 80.726562 130.71875 C 80.679688 130.828125 80.589844 130.914062 80.476562 130.953125 C 77.105469 132.121094 73.820312 133.742188 70.644531 135.3125 C 68.875 136.183594 67.042969 137.089844 65.210938 137.90625 C 65.15625 137.933594 65.097656 137.945312 65.039062 137.945312 "/>
<path style=" stroke:none;fill-rule:nonzero;fill:rgb(3.921569%,16.470588%,31.372549%);fill-opacity:1;" d="M 44.667969 81.285156 C 44.152344 81.285156 43.601562 81.402344 43.035156 81.628906 C 40.914062 82.488281 40.351562 84.957031 41.527344 88.238281 L 47.496094 106.0625 C 47.5 106.070312 47.503906 106.082031 47.507812 106.089844 L 48.097656 107.6875 C 47.691406 107.890625 47.320312 108.160156 46.324219 108.875 C 45.414062 109.53125 44.816406 110.503906 44.636719 111.609375 C 44.457031 112.714844 44.71875 113.824219 45.375 114.734375 L 49.382812 120.171875 C 49.472656 120.296875 49.648438 120.566406 49.871094 120.910156 C 51.160156 122.894531 54.179688 127.546875 56.976562 129.101562 C 56.992188 129.109375 57.007812 129.117188 57.023438 129.125 C 58.257812 129.84375 59.769531 130.238281 61.292969 130.238281 C 61.332031 130.238281 61.371094 130.238281 61.410156 130.234375 L 64.238281 137.816406 C 64.320312 138.035156 64.492188 138.214844 64.710938 138.304688 C 64.8125 138.347656 64.925781 138.371094 65.039062 138.371094 C 65.15625 138.371094 65.277344 138.347656 65.386719 138.296875 C 67.226562 137.472656 69.058594 136.570312 70.832031 135.695312 C 73.996094 134.132812 77.269531 132.515625 80.617188 131.355469 C 80.839844 131.277344 81.023438 131.105469 81.117188 130.886719 C 81.214844 130.667969 81.210938 130.417969 81.113281 130.199219 L 77.980469 123.195312 C 78.03125 122.636719 77.980469 121.953125 77.90625 120.988281 C 77.84375 120.210938 77.769531 119.242188 77.726562 118.015625 C 77.605469 114.824219 76.765625 108.851562 76.148438 106.03125 C 75.371094 102.488281 73.074219 95.527344 72.976562 95.230469 C 72.972656 95.226562 72.972656 95.21875 72.96875 95.210938 C 72.414062 93.664062 71.113281 90.042969 68.183594 90.042969 C 67.753906 90.042969 67.308594 90.128906 66.863281 90.289062 C 65.585938 90.753906 64.695312 91.480469 64.261719 92.355469 C 63.585938 91.867188 62.757812 91.585938 61.886719 91.585938 C 61.417969 91.585938 60.957031 91.664062 60.511719 91.824219 C 59.273438 92.269531 58.367188 93.253906 58 94.449219 C 57.347656 94.019531 56.578125 93.78125 55.769531 93.78125 C 55.300781 93.78125 54.839844 93.863281 54.394531 94.023438 C 53.546875 94.328125 52.859375 94.890625 52.394531 95.589844 L 48.792969 85.417969 C 48.351562 84.179688 47.3125 81.285156 44.667969 81.285156 Z M 44.667969 82.136719 C 46.636719 82.140625 47.492188 84.308594 47.992188 85.703125 L 52.679688 98.960938 L 52.742188 98.929688 C 52.148438 97.261719 53.015625 95.425781 54.683594 94.824219 C 55.042969 94.695312 55.410156 94.636719 55.769531 94.636719 C 56.84375 94.636719 57.867188 95.183594 58.460938 96.097656 L 58.574219 96.042969 L 58.695312 96.015625 C 58.527344 94.566406 59.367188 93.140625 60.800781 92.628906 C 61.160156 92.5 61.527344 92.4375 61.886719 92.4375 C 63.203125 92.4375 64.4375 93.253906 64.910156 94.566406 L 64.992188 94.59375 L 64.976562 94.542969 C 64.375 92.871094 65.488281 91.699219 67.152344 91.09375 C 67.519531 90.957031 67.863281 90.898438 68.183594 90.898438 C 70.492188 90.898438 71.640625 94.03125 72.167969 95.5 C 72.167969 95.5 74.539062 102.675781 75.316406 106.214844 C 75.953125 109.128906 76.761719 115.066406 76.875 118.046875 C 76.980469 120.976562 77.253906 122.453125 77.105469 123.324219 L 80.335938 130.546875 C 75.0625 132.382812 70.15625 135.230469 65.039062 137.519531 L 61.988281 129.351562 C 61.757812 129.375 61.527344 129.382812 61.292969 129.382812 C 59.925781 129.382812 58.527344 129.027344 57.394531 128.351562 L 57.390625 128.355469 C 54.292969 126.632812 50.75 120.605469 50.070312 119.664062 L 46.066406 114.234375 C 44.988281 112.738281 45.324219 110.648438 46.824219 109.566406 C 48.320312 108.488281 48.320312 108.488281 49.183594 108.164062 L 48.304688 105.792969 L 42.332031 87.960938 C 41.734375 86.289062 41.132812 83.316406 43.355469 82.421875 C 43.839844 82.226562 44.277344 82.136719 44.667969 82.136719 "/>
<path style=" stroke:none;fill-rule:nonzero;fill:rgb(96.862745%,56.862745%,41.568627%);fill-opacity:1;" d="M 61.988281 129.351562 L 65.039062 137.519531 C 70.15625 135.230469 75.0625 132.382812 80.335938 130.546875 L 77.105469 123.324219 C 77.253906 122.453125 76.980469 120.976562 76.875 118.046875 C 76.761719 115.066406 75.953125 109.128906 75.316406 106.214844 C 74.539062 102.675781 72.167969 95.5 72.167969 95.5 C 71.566406 93.828125 70.160156 89.996094 67.152344 91.09375 C 66.734375 91.246094 66.351562 91.433594 66.019531 91.65625 C 66.097656 91.730469 66.167969 91.800781 66.226562 91.863281 C 67.8125 93.539062 68.855469 95.515625 69.707031 97.648438 C 71.804688 102.890625 72.390625 108.417969 72.546875 114.027344 C 72.65625 117.839844 72.292969 121.96875 69.351562 124.75 C 67.421875 126.570312 65.046875 127.410156 62.503906 128.007812 C 61.296875 128.292969 60.117188 128.65625 58.941406 129.027344 C 59.921875 129.332031 60.976562 129.445312 61.988281 129.351562 "/>
<path style=" stroke:none;fill-rule:nonzero;fill:rgb(100%,100%,100%);fill-opacity:1;" d="M 62.429688 139.242188 C 62.367188 139.242188 62.300781 139.226562 62.242188 139.195312 C 62.132812 139.144531 62.054688 139.046875 62.019531 138.929688 C 61.902344 138.519531 61.753906 137.984375 61.625 137.476562 C 60.636719 133.515625 61.050781 132.527344 61.449219 132.128906 C 61.59375 131.96875 61.84375 131.769531 62.191406 131.535156 C 62.519531 131.316406 62.910156 131.082031 63.355469 130.835938 C 63.363281 130.835938 63.386719 130.820312 63.394531 130.820312 C 64.335938 130.300781 65.558594 129.710938 66.929688 129.109375 C 68.84375 128.261719 70.972656 127.425781 72.925781 126.753906 C 72.929688 126.753906 72.933594 126.753906 72.933594 126.75 C 74.988281 126.050781 77.773438 125.210938 79.40625 125.210938 C 79.765625 125.210938 80.054688 125.253906 80.285156 125.332031 C 80.527344 125.417969 81.046875 125.59375 82.707031 128.839844 C 82.921875 129.257812 83.164062 129.742188 83.421875 130.273438 C 83.472656 130.378906 83.476562 130.503906 83.433594 130.613281 C 83.390625 130.722656 83.304688 130.808594 83.195312 130.855469 L 62.589844 139.210938 C 62.539062 139.230469 62.484375 139.242188 62.429688 139.242188 "/>
<path style=" stroke:none;fill-rule:nonzero;fill:rgb(3.921569%,16.470588%,31.372549%);fill-opacity:1;" d="M 79.40625 124.785156 C 77.714844 124.785156 74.878906 125.636719 72.796875 126.347656 C 72.792969 126.351562 72.785156 126.351562 72.78125 126.355469 C 70.816406 127.027344 68.679688 127.867188 66.757812 128.71875 C 65.382812 129.320312 64.15625 129.914062 63.203125 130.4375 C 63.195312 130.441406 63.183594 130.445312 63.175781 130.453125 C 63.167969 130.457031 63.160156 130.460938 63.152344 130.464844 C 62.695312 130.714844 62.292969 130.957031 61.957031 131.179688 C 61.578125 131.433594 61.316406 131.644531 61.132812 131.84375 C 60.597656 132.390625 60.195312 133.515625 61.210938 137.578125 C 61.339844 138.09375 61.492188 138.632812 61.609375 139.046875 C 61.675781 139.28125 61.839844 139.472656 62.054688 139.582031 C 62.175781 139.636719 62.300781 139.667969 62.429688 139.667969 C 62.539062 139.667969 62.648438 139.644531 62.75 139.605469 L 83.355469 131.25 C 83.574219 131.160156 83.746094 130.984375 83.832031 130.765625 C 83.917969 130.546875 83.90625 130.300781 83.804688 130.085938 C 83.542969 129.550781 83.304688 129.066406 83.085938 128.644531 C 81.480469 125.507812 80.867188 125.082031 80.417969 124.929688 C 80.148438 124.832031 79.816406 124.785156 79.40625 124.785156 Z M 79.40625 125.640625 C 79.707031 125.640625 79.957031 125.667969 80.144531 125.738281 C 80.5625 125.878906 81.355469 127.132812 82.328125 129.03125 L 82.328125 129.035156 C 82.554688 129.472656 82.792969 129.957031 83.035156 130.457031 L 62.429688 138.8125 C 62.289062 138.316406 62.15625 137.832031 62.039062 137.371094 C 61.40625 134.832031 61.214844 132.964844 61.75 132.433594 C 61.890625 132.277344 62.121094 132.09375 62.429688 131.890625 C 62.738281 131.683594 63.121094 131.457031 63.5625 131.210938 C 63.574219 131.207031 63.578125 131.203125 63.585938 131.199219 L 63.589844 131.199219 C 64.535156 130.679688 65.75 130.089844 67.101562 129.5 C 68.964844 128.671875 71.078125 127.839844 73.070312 127.15625 L 73.074219 127.15625 C 75.667969 126.265625 78.054688 125.640625 79.40625 125.640625 "/>
<path style=" stroke:none;fill-rule:nonzero;fill:rgb(85.098039%,89.019608%,90.980392%);fill-opacity:1;" d="M 79.164062 132.027344 L 83.035156 130.457031 C 82.792969 129.957031 82.554688 129.472656 82.328125 129.035156 L 82.328125 129.03125 C 81.355469 127.132812 80.5625 125.878906 80.144531 125.738281 C 79.457031 125.496094 77.964844 125.722656 76.109375 126.21875 C 77.238281 128.089844 78.238281 130.046875 79.164062 132.027344 "/>
<path style=" stroke:none;fill-rule:nonzero;fill:rgb(39.215686%,80.392157%,96.078431%);fill-opacity:1;" d="M 88.96875 139.972656 C 88.84375 139.675781 88.714844 139.386719 88.589844 139.097656 C 88.339844 138.519531 88.09375 137.957031 87.847656 137.410156 C 87.007812 135.519531 86.234375 133.867188 85.542969 132.503906 C 83.542969 128.507812 82.957031 128.273438 82.714844 128.175781 C 82.40625 128.046875 82.015625 127.988281 81.511719 127.988281 C 79.644531 127.988281 76.660156 128.855469 74.484375 129.582031 C 74.480469 129.585938 74.476562 129.585938 74.472656 129.589844 C 72.289062 130.324219 69.917969 131.25 67.804688 132.195312 C 66.28125 132.871094 64.929688 133.535156 63.886719 134.128906 C 63.875 134.132812 63.84375 134.148438 63.839844 134.152344 C 63.355469 134.425781 62.925781 134.695312 62.554688 134.949219 C 62.171875 135.21875 61.902344 135.453125 61.742188 135.644531 C 61.390625 136.023438 61.046875 136.898438 61.683594 139.972656 L 88.96875 139.972656 "/>
<path style=" stroke:none;fill-rule:nonzero;fill:rgb(3.921569%,16.470588%,31.372549%);fill-opacity:1;" d="M 62.121094 139.972656 C 61.683594 137.890625 61.609375 136.417969 62.054688 135.933594 C 62.210938 135.75 62.460938 135.539062 62.800781 135.300781 C 63.140625 135.0625 63.558594 134.800781 64.050781 134.523438 C 64.0625 134.515625 64.066406 134.511719 64.078125 134.507812 C 65.125 133.914062 66.476562 133.25 67.976562 132.585938 C 70.046875 131.660156 72.398438 130.734375 74.621094 129.988281 C 77.394531 129.058594 79.960938 128.414062 81.511719 128.414062 C 81.941406 128.414062 82.292969 128.460938 82.550781 128.570312 C 83.027344 128.761719 83.980469 130.332031 85.164062 132.691406 L 85.164062 132.695312 C 85.867188 134.085938 86.648438 135.753906 87.457031 137.582031 C 87.703125 138.128906 87.949219 138.695312 88.199219 139.265625 C 88.300781 139.496094 88.402344 139.738281 88.503906 139.972656 L 89.433594 139.972656 C 89.28125 139.621094 89.128906 139.265625 88.980469 138.921875 C 88.691406 138.261719 88.457031 137.722656 88.234375 137.230469 C 87.398438 135.34375 86.621094 133.6875 85.929688 132.316406 C 85.929688 132.316406 85.925781 132.3125 85.925781 132.3125 C 84.011719 128.492188 83.34375 127.96875 82.867188 127.777344 C 82.519531 127.632812 82.070312 127.558594 81.511719 127.558594 C 79.585938 127.558594 76.554688 128.441406 74.351562 129.179688 C 74.34375 129.183594 74.335938 129.183594 74.328125 129.1875 C 72.132812 129.925781 69.753906 130.855469 67.628906 131.808594 C 66.101562 132.484375 64.738281 133.15625 63.683594 133.75 C 63.671875 133.757812 63.660156 133.765625 63.648438 133.769531 C 63.640625 133.773438 63.636719 133.777344 63.628906 133.78125 C 63.136719 134.0625 62.691406 134.335938 62.3125 134.597656 C 61.898438 134.890625 61.613281 135.136719 61.414062 135.371094 C 60.953125 135.878906 60.613281 136.867188 61.246094 139.972656 L 62.121094 139.972656 "/>
<path style=" stroke:none;fill-rule:nonzero;fill:rgb(27.843137%,71.764706%,89.019608%);fill-opacity:1;" d="M 82.699219 139.972656 L 88.503906 139.972656 C 88.402344 139.738281 88.300781 139.496094 88.199219 139.265625 C 87.949219 138.695312 87.703125 138.128906 87.457031 137.582031 C 86.648438 135.753906 85.867188 134.085938 85.164062 132.695312 L 85.164062 132.691406 C 83.980469 130.332031 83.027344 128.761719 82.550781 128.570312 C 81.726562 128.226562 79.917969 128.476562 77.699219 129.058594 C 78.972656 131.492188 80.085938 134.011719 81.140625 136.511719 C 81.359375 137.035156 81.917969 138.269531 82.699219 139.972656 "/>
<path style=" stroke:none;fill-rule:nonzero;fill:rgb(100%,100%,100%);fill-opacity:1;" d="M 64.878906 73.175781 C 64.789062 73.175781 64.699219 73.148438 64.625 73.09375 C 64.472656 72.980469 64.414062 72.785156 64.476562 72.609375 L 67.839844 63.070312 L 67.378906 63.070312 C 63.488281 63.070312 60.324219 59.90625 60.324219 56.019531 L 60.324219 36.039062 C 60.324219 32.148438 63.488281 28.984375 67.378906 28.984375 L 104.496094 28.984375 C 108.386719 28.984375 111.550781 32.148438 111.550781 36.039062 L 111.550781 56.019531 C 111.550781 59.90625 108.386719 63.070312 104.496094 63.070312 L 78.789062 63.070312 L 65.128906 73.09375 C 65.054688 73.148438 64.964844 73.175781 64.878906 73.175781 "/>
<path style=" stroke:none;fill-rule:nonzero;fill:rgb(3.921569%,16.470588%,31.372549%);fill-opacity:1;" d="M 104.496094 28.558594 L 67.378906 28.558594 C 63.253906 28.558594 59.898438 31.914062 59.898438 36.039062 L 59.898438 56.019531 C 59.898438 60.097656 63.179688 63.421875 67.238281 63.496094 L 64.074219 72.46875 C 63.949219 72.820312 64.070312 73.214844 64.371094 73.4375 C 64.519531 73.546875 64.699219 73.605469 64.878906 73.605469 C 65.054688 73.605469 65.234375 73.550781 65.382812 73.4375 L 78.925781 63.5 L 104.496094 63.5 C 108.621094 63.5 111.976562 60.144531 111.976562 56.019531 L 111.976562 36.039062 C 111.976562 31.914062 108.621094 28.558594 104.496094 28.558594 Z M 104.496094 29.410156 C 108.15625 29.410156 111.125 32.378906 111.125 36.039062 L 111.125 56.019531 C 111.125 59.679688 108.15625 62.644531 104.496094 62.644531 L 78.648438 62.644531 L 64.878906 72.75 L 68.441406 62.644531 L 67.378906 62.644531 C 63.71875 62.644531 60.75 59.679688 60.75 56.019531 L 60.75 36.039062 C 60.75 32.378906 63.71875 29.410156 67.378906 29.410156 L 104.496094 29.410156 "/>
<path style=" stroke:none;fill-rule:nonzero;fill:rgb(85.098039%,89.019608%,90.980392%);fill-opacity:1;" d="M 104.496094 29.410156 L 101.875 29.410156 C 103.324219 32.519531 104.199219 35.941406 104.410156 39.285156 C 104.757812 44.699219 103.261719 50.460938 99.359375 54.402344 C 96.109375 57.6875 91.6875 59.335938 87.171875 59.953125 C 84.53125 60.3125 81.867188 60.378906 79.210938 60.53125 C 76.09375 60.710938 72.957031 60.886719 69.839844 60.671875 C 67 60.476562 64.0625 60.050781 61.421875 58.925781 C 62.5 61.128906 64.761719 62.644531 67.378906 62.644531 L 68.441406 62.644531 L 64.878906 72.75 L 78.648438 62.644531 L 104.496094 62.644531 C 108.15625 62.644531 111.125 59.679688 111.125 56.019531 L 111.125 36.039062 C 111.125 32.378906 108.15625 29.410156 104.496094 29.410156 "/>
<path style=" stroke:none;fill-rule:nonzero;fill:rgb(39.215686%,80.392157%,96.078431%);fill-opacity:1;" d="M 74.429688 40.234375 C 74.191406 40.234375 74 40.042969 74 39.808594 L 74 36.492188 C 74 35.550781 74.769531 34.78125 75.714844 34.78125 C 76.65625 34.78125 77.425781 35.550781 77.425781 36.492188 L 77.425781 39.808594 C 77.425781 40.042969 77.234375 40.234375 77 40.234375 L 74.429688 40.234375 "/>
<path style=" stroke:none;fill-rule:nonzero;fill:rgb(3.921569%,16.470588%,31.372549%);fill-opacity:1;" d="M 75.714844 34.355469 C 74.535156 34.355469 73.574219 35.316406 73.574219 36.492188 L 73.574219 39.808594 C 73.574219 40.277344 73.957031 40.660156 74.429688 40.660156 L 77 40.660156 C 77.46875 40.660156 77.851562 40.277344 77.851562 39.808594 L 77.851562 36.492188 C 77.851562 35.316406 76.890625 34.355469 75.714844 34.355469 Z M 75.714844 35.210938 C 76.421875 35.210938 77 35.785156 77 36.492188 L 77 39.808594 L 74.429688 39.808594 L 74.429688 36.492188 C 74.429688 35.785156 75.003906 35.210938 75.714844 35.210938 "/>
<path style=" stroke:none;fill-rule:nonzero;fill:rgb(94.509804%,28.627451%,22.745098%);fill-opacity:1;" d="M 75.714844 40.234375 C 75.476562 40.234375 75.285156 40.042969 75.285156 39.808594 L 75.285156 36.492188 C 75.285156 35.550781 76.054688 34.78125 77 34.78125 C 77.941406 34.78125 78.710938 35.550781 78.710938 36.492188 L 78.710938 39.808594 C 78.710938 40.042969 78.519531 40.234375 78.285156 40.234375 L 75.714844 40.234375 "/>
<path style=" stroke:none;fill-rule:nonzero;fill:rgb(3.921569%,16.470588%,31.372549%);fill-opacity:1;" d="M 77 34.355469 C 75.820312 34.355469 74.859375 35.316406 74.859375 36.492188 L 74.859375 39.808594 C 74.859375 40.277344 75.242188 40.660156 75.714844 40.660156 L 78.285156 40.660156 C 78.753906 40.660156 79.136719 40.277344 79.136719 39.808594 L 79.136719 36.492188 C 79.136719 35.316406 78.175781 34.355469 77 34.355469 Z M 77 35.210938 C 77.707031 35.210938 78.285156 35.785156 78.285156 36.492188 L 78.285156 39.808594 L 75.714844 39.808594 L 75.714844 36.492188 C 75.714844 35.785156 76.289062 35.210938 77 35.210938 "/>
<path style=" stroke:none;fill-rule:nonzero;fill:rgb(100%,100%,100%);fill-opacity:1;" d="M 69.300781 48.015625 C 69.167969 48.015625 69.042969 47.953125 68.960938 47.847656 C 68.882812 47.742188 68.855469 47.605469 68.886719 47.476562 L 71.570312 37.398438 C 71.621094 37.210938 71.789062 37.082031 71.984375 37.082031 L 84.566406 37.082031 C 84.800781 37.082031 84.992188 37.273438 84.992188 37.507812 L 84.992188 47.585938 C 84.992188 47.824219 84.800781 48.015625 84.566406 48.015625 L 69.300781 48.015625 "/>
<path style=" stroke:none;fill-rule:nonzero;fill:rgb(3.921569%,16.470588%,31.372549%);fill-opacity:1;" d="M 84.566406 36.65625 L 71.984375 36.65625 C 71.597656 36.65625 71.257812 36.914062 71.160156 37.289062 L 68.476562 47.367188 C 68.40625 47.625 68.464844 47.898438 68.625 48.105469 C 68.785156 48.316406 69.035156 48.441406 69.300781 48.441406 L 84.566406 48.441406 C 85.039062 48.441406 85.417969 48.058594 85.417969 47.585938 L 85.417969 37.507812 C 85.417969 37.035156 85.039062 36.65625 84.566406 36.65625 Z M 84.566406 37.507812 L 84.566406 47.585938 L 69.300781 47.585938 L 71.984375 37.507812 L 84.566406 37.507812 "/>
<path style=" stroke:none;fill-rule:nonzero;fill:rgb(85.098039%,89.019608%,90.980392%);fill-opacity:1;" d="M 78.039062 37.507812 C 78.109375 37.890625 78.171875 38.273438 78.207031 38.65625 C 78.371094 40.382812 77.757812 42.363281 76.410156 43.53125 C 75.773438 44.089844 75.082031 44.328125 74.269531 44.53125 C 73.574219 44.707031 72.855469 44.878906 72.136719 44.917969 C 71.386719 44.960938 70.703125 44.84375 70.109375 44.550781 L 69.300781 47.585938 L 84.566406 47.585938 L 84.566406 37.507812 L 78.039062 37.507812 "/>
<path style=" stroke:none;fill-rule:nonzero;fill:rgb(39.215686%,80.392157%,96.078431%);fill-opacity:1;" d="M 69.847656 49.101562 C 69.714844 49.101562 69.589844 49.042969 69.507812 48.9375 C 69.429688 48.832031 69.402344 48.695312 69.433594 48.566406 L 72.117188 38.488281 C 72.167969 38.300781 72.335938 38.171875 72.53125 38.171875 L 85.113281 38.171875 C 85.347656 38.171875 85.539062 38.363281 85.539062 38.597656 L 85.539062 48.675781 C 85.539062 48.914062 85.347656 49.101562 85.113281 49.101562 L 69.847656 49.101562 "/>
<path style=" stroke:none;fill-rule:nonzero;fill:rgb(3.921569%,16.470588%,31.372549%);fill-opacity:1;" d="M 85.113281 37.746094 L 72.53125 37.746094 C 72.144531 37.746094 71.804688 38.003906 71.707031 38.378906 L 69.023438 48.457031 C 68.957031 48.714844 69.011719 48.988281 69.171875 49.195312 C 69.332031 49.40625 69.582031 49.53125 69.847656 49.53125 L 85.113281 49.53125 C 85.582031 49.53125 85.964844 49.148438 85.964844 48.675781 L 85.964844 38.597656 C 85.964844 38.125 85.582031 37.746094 85.113281 37.746094 Z M 85.113281 38.597656 L 85.113281 48.675781 L 69.847656 48.675781 L 72.53125 38.597656 L 85.113281 38.597656 "/>
<path style=" stroke:none;fill-rule:nonzero;fill:rgb(27.843137%,71.764706%,89.019608%);fill-opacity:1;" d="M 78.203125 38.597656 C 78.203125 38.617188 78.207031 38.636719 78.207031 38.65625 C 78.371094 40.382812 77.757812 42.363281 76.410156 43.53125 C 75.773438 44.089844 75.082031 44.328125 74.269531 44.53125 C 73.574219 44.707031 72.855469 44.878906 72.136719 44.917969 C 71.691406 44.941406 71.269531 44.914062 70.875 44.820312 L 69.847656 48.675781 L 85.113281 48.675781 L 85.113281 38.597656 L 78.203125 38.597656 "/>
<path style=" stroke:none;fill-rule:nonzero;fill:rgb(100%,100%,100%);fill-opacity:1;" d="M 66.125 55.382812 C 65.324219 55.382812 64.902344 54.210938 64.902344 53.046875 L 64.902344 52.289062 C 64.902344 51.242188 65.789062 50.347656 66.484375 50.054688 C 66.488281 48.902344 66.492188 48.214844 66.492188 48.214844 C 66.492188 46.929688 67.542969 45.882812 68.828125 45.882812 L 78.058594 45.882812 C 78.875 45.882812 79.539062 45.21875 79.539062 44.398438 L 79.539062 34.671875 C 79.539062 33.382812 80.585938 32.335938 81.875 32.335938 L 101.894531 32.335938 C 103.179688 32.335938 104.230469 33.382812 104.230469 34.671875 L 104.230469 53.046875 C 104.230469 54.335938 103.179688 55.382812 101.894531 55.382812 L 66.125 55.382812 "/>
<path style=" stroke:none;fill-rule:nonzero;fill:rgb(3.921569%,16.470588%,31.372549%);fill-opacity:1;" d="M 101.894531 31.910156 L 81.875 31.910156 C 80.351562 31.910156 79.113281 33.148438 79.113281 34.671875 L 79.113281 44.398438 C 79.113281 44.980469 78.640625 45.457031 78.058594 45.457031 L 68.828125 45.457031 C 67.304688 45.457031 66.066406 46.695312 66.066406 48.21875 C 66.066406 48.21875 66.0625 48.804688 66.058594 49.789062 C 65.265625 50.234375 64.476562 51.199219 64.476562 52.289062 L 64.476562 53.046875 C 64.476562 54.675781 65.15625 55.808594 66.125 55.808594 L 101.894531 55.808594 C 103.417969 55.808594 104.65625 54.570312 104.65625 53.046875 L 104.65625 34.671875 C 104.65625 33.148438 103.417969 31.910156 101.894531 31.910156 Z M 101.894531 32.761719 C 102.945312 32.761719 103.800781 33.621094 103.800781 34.671875 L 103.800781 53.046875 C 103.800781 54.097656 102.945312 54.957031 101.894531 54.957031 L 68.828125 54.957031 C 67.777344 54.957031 66.5625 54.957031 66.125 54.957031 C 65.6875 54.957031 65.328125 54.097656 65.328125 53.046875 L 65.328125 52.289062 C 65.328125 51.238281 66.472656 50.378906 66.910156 50.378906 C 66.910156 49.035156 66.921875 48.21875 66.921875 48.21875 C 66.921875 47.167969 67.777344 46.308594 68.828125 46.308594 L 78.058594 46.308594 C 79.105469 46.308594 79.964844 45.449219 79.964844 44.398438 L 79.964844 34.671875 C 79.964844 33.621094 80.824219 32.761719 81.875 32.761719 L 101.894531 32.761719 "/>
<path style=" stroke:none;fill-rule:nonzero;fill:rgb(85.098039%,89.019608%,90.980392%);fill-opacity:1;" d="M 101.894531 32.761719 L 93.484375 32.761719 C 96.082031 36.449219 95.597656 41.820312 93.402344 45.585938 C 90.621094 50.355469 84.75 52.316406 79.464844 52.15625 C 76.085938 52.058594 72.90625 51.085938 69.863281 49.652344 C 68.941406 49.21875 67.890625 48.800781 66.917969 48.269531 C 66.917969 48.46875 66.910156 49.230469 66.910156 50.378906 C 66.472656 50.378906 65.328125 51.238281 65.328125 52.289062 L 65.328125 53.046875 C 65.328125 54.097656 65.6875 54.957031 66.125 54.957031 L 101.894531 54.957031 C 102.945312 54.957031 103.800781 54.097656 103.800781 53.046875 L 103.800781 34.671875 C 103.800781 33.621094 102.945312 32.761719 101.894531 32.761719 "/>
<path style=" stroke:none;fill-rule:nonzero;fill:rgb(72.54902%,71.764706%,72.156863%);fill-opacity:1;" d="M 72.992188 58.246094 C 71.179688 58.246094 69.703125 56.769531 69.703125 54.957031 C 69.703125 53.144531 71.179688 51.667969 72.992188 51.667969 C 74.804688 51.667969 76.28125 53.144531 76.28125 54.957031 C 76.28125 56.769531 74.804688 58.246094 72.992188 58.246094 "/>
<path style=" stroke:none;fill-rule:nonzero;fill:rgb(3.921569%,16.470588%,31.372549%);fill-opacity:1;" d="M 72.992188 51.242188 C 70.945312 51.242188 69.277344 52.910156 69.277344 54.957031 C 69.277344 57.003906 70.945312 58.671875 72.992188 58.671875 C 75.039062 58.671875 76.707031 57.003906 76.707031 54.957031 C 76.707031 52.910156 75.039062 51.242188 72.992188 51.242188 Z M 72.992188 52.097656 C 74.574219 52.097656 75.855469 53.375 75.855469 54.957031 C 75.855469 56.539062 74.574219 57.820312 72.992188 57.820312 C 71.410156 57.820312 70.132812 56.539062 70.132812 54.957031 C 70.132812 53.375 71.410156 52.097656 72.992188 52.097656 "/>
<path style=" stroke:none;fill-rule:nonzero;fill:rgb(72.54902%,71.764706%,72.156863%);fill-opacity:1;" d="M 96.457031 58.246094 C 94.644531 58.246094 93.167969 56.769531 93.167969 54.957031 C 93.167969 53.144531 94.644531 51.667969 96.457031 51.667969 C 98.269531 51.667969 99.746094 53.144531 99.746094 54.957031 C 99.746094 56.769531 98.269531 58.246094 96.457031 58.246094 "/>
<path style=" stroke:none;fill-rule:nonzero;fill:rgb(3.921569%,16.470588%,31.372549%);fill-opacity:1;" d="M 96.457031 51.242188 C 94.410156 51.242188 92.742188 52.910156 92.742188 54.957031 C 92.742188 57.003906 94.410156 58.671875 96.457031 58.671875 C 98.503906 58.671875 100.171875 57.003906 100.171875 54.957031 C 100.171875 52.910156 98.503906 51.242188 96.457031 51.242188 Z M 96.457031 52.097656 C 98.039062 52.097656 99.320312 53.375 99.320312 54.957031 C 99.320312 56.539062 98.039062 57.820312 96.457031 57.820312 C 94.878906 57.820312 93.597656 56.539062 93.597656 54.957031 C 93.597656 53.375 94.878906 52.097656 96.457031 52.097656 "/>
<path style=" stroke:none;fill-rule:nonzero;fill:rgb(39.215686%,80.392157%,96.078431%);fill-opacity:1;" d="M 92.03125 50.605469 C 87.777344 50.605469 84.3125 47.140625 84.3125 42.886719 C 84.3125 38.632812 87.777344 35.167969 92.03125 35.167969 C 96.285156 35.167969 99.75 38.632812 99.75 42.886719 C 99.75 47.140625 96.285156 50.605469 92.03125 50.605469 "/>
<path style=" stroke:none;fill-rule:nonzero;fill:rgb(3.921569%,16.470588%,31.372549%);fill-opacity:1;" d="M 92.03125 34.746094 C 87.539062 34.746094 83.886719 38.398438 83.886719 42.886719 C 83.886719 47.378906 87.539062 51.03125 92.03125 51.03125 C 96.523438 51.03125 100.175781 47.378906 100.175781 42.886719 C 100.175781 38.398438 96.523438 34.746094 92.03125 34.746094 Z M 92.03125 35.597656 C 96.058594 35.597656 99.320312 38.859375 99.320312 42.886719 C 99.320312 46.914062 96.058594 50.175781 92.03125 50.175781 C 88.003906 50.175781 84.742188 46.914062 84.742188 42.886719 C 84.742188 38.859375 88.003906 35.597656 92.03125 35.597656 "/>
<path style=" stroke:none;fill-rule:nonzero;fill:rgb(60%,87.058824%,97.647059%);fill-opacity:1;" d="M 85.925781 45.886719 C 85.496094 44.054688 85.382812 42.15625 86.097656 40.375 C 86.820312 38.570312 88.089844 37.125 89.757812 36.128906 C 89.96875 36.003906 90.179688 35.886719 90.398438 35.78125 C 87.15625 36.523438 84.742188 39.421875 84.742188 42.886719 C 84.742188 44.671875 85.382812 46.304688 86.445312 47.570312 C 86.230469 47.023438 86.0625 46.453125 85.925781 45.886719 "/>
<path style=" stroke:none;fill-rule:nonzero;fill:rgb(27.843137%,71.764706%,89.019608%);fill-opacity:1;" d="M 94.980469 36.21875 C 95.671875 39.359375 94.976562 42.886719 93.402344 45.585938 C 92.402344 47.304688 91 48.652344 89.371094 49.675781 C 90.195312 50 91.09375 50.175781 92.03125 50.175781 C 96.058594 50.175781 99.320312 46.914062 99.320312 42.886719 C 99.320312 39.910156 97.535156 37.351562 94.980469 36.21875 "/>
<path style=" stroke:none;fill-rule:nonzero;fill:rgb(100%,100%,100%);fill-opacity:1;" d="M 90.914062 48.691406 C 90.203125 48.691406 89.625 48.113281 89.625 47.402344 L 89.625 45.292969 L 87.515625 45.292969 C 86.804688 45.292969 86.226562 44.714844 86.226562 44.003906 L 86.226562 41.773438 C 86.226562 41.058594 86.804688 40.480469 87.515625 40.480469 L 89.625 40.480469 L 89.625 38.371094 C 89.625 37.660156 90.203125 37.082031 90.914062 37.082031 L 93.148438 37.082031 C 93.859375 37.082031 94.4375 37.660156 94.4375 38.371094 L 94.4375 40.480469 L 96.546875 40.480469 C 97.257812 40.480469 97.835938 41.058594 97.835938 41.773438 L 97.835938 44.003906 C 97.835938 44.714844 97.257812 45.292969 96.546875 45.292969 L 94.4375 45.292969 L 94.4375 47.402344 C 94.4375 48.113281 93.859375 48.691406 93.148438 48.691406 L 90.914062 48.691406 "/>
<path style=" stroke:none;fill-rule:nonzero;fill:rgb(3.921569%,16.470588%,31.372549%);fill-opacity:1;" d="M 93.148438 36.65625 L 90.914062 36.65625 C 89.96875 36.65625 89.199219 37.425781 89.199219 38.371094 L 89.199219 40.054688 L 87.515625 40.054688 C 86.570312 40.054688 85.800781 40.824219 85.800781 41.773438 L 85.800781 44.003906 C 85.800781 44.949219 86.570312 45.71875 87.515625 45.71875 L 89.199219 45.71875 L 89.199219 47.402344 C 89.199219 48.351562 89.96875 49.121094 90.914062 49.121094 L 93.148438 49.121094 C 94.09375 49.121094 94.863281 48.351562 94.863281 47.402344 L 94.863281 45.71875 L 96.546875 45.71875 C 97.492188 45.71875 98.261719 44.949219 98.261719 44.003906 L 98.261719 41.773438 C 98.261719 40.824219 97.492188 40.054688 96.546875 40.054688 L 94.863281 40.054688 L 94.863281 38.371094 C 94.863281 37.425781 94.09375 36.65625 93.148438 36.65625 Z M 93.148438 37.507812 C 93.625 37.507812 94.011719 37.894531 94.011719 38.371094 L 94.011719 40.90625 L 96.546875 40.90625 C 97.023438 40.90625 97.410156 41.296875 97.410156 41.773438 L 97.410156 44.003906 C 97.410156 44.480469 97.023438 44.867188 96.546875 44.867188 L 94.011719 44.867188 L 94.011719 47.402344 C 94.011719 47.878906 93.625 48.265625 93.148438 48.265625 L 90.914062 48.265625 C 90.4375 48.265625 90.050781 47.878906 90.050781 47.402344 L 90.050781 44.867188 L 87.515625 44.867188 C 87.039062 44.867188 86.652344 44.480469 86.652344 44.003906 L 86.652344 41.773438 C 86.652344 41.296875 87.039062 40.90625 87.515625 40.90625 L 90.050781 40.90625 L 90.050781 38.371094 C 90.050781 37.894531 90.4375 37.507812 90.914062 37.507812 L 93.148438 37.507812 "/>
<path style=" stroke:none;fill-rule:nonzero;fill:rgb(85.098039%,89.019608%,90.980392%);fill-opacity:1;" d="M 96.546875 40.90625 L 95.066406 40.90625 C 94.792969 42.578125 94.21875 44.191406 93.402344 45.585938 C 92.808594 46.605469 92.070312 47.496094 91.230469 48.265625 L 93.148438 48.265625 C 93.625 48.265625 94.011719 47.878906 94.011719 47.402344 L 94.011719 44.867188 L 96.546875 44.867188 C 97.023438 44.867188 97.410156 44.480469 97.410156 44.003906 L 97.410156 41.773438 C 97.410156 41.296875 97.023438 40.90625 96.546875 40.90625 "/>
</g>
</svg>
