<?xml version="1.0" encoding="UTF-8"?>
<svg xmlns="http://www.w3.org/2000/svg" xmlns:xlink="http://www.w3.org/1999/xlink" width="90pt" height="96pt" viewBox="0 0 90 96" version="1.1">
<g id="surface1">
<path style=" stroke:none;fill-rule:evenodd;fill:rgb(90.588235%,90.588235%,90.588235%);fill-opacity:1;" d="M 5.382812 7.777344 L 84.566406 7.777344 C 87.527344 7.777344 89.949219 10.15625 89.949219 13.0625 L 89.949219 90.621094 C 89.949219 93.527344 87.527344 95.90625 84.566406 95.90625 L 5.382812 95.90625 C 2.421875 95.90625 0 93.527344 0 90.621094 L 0 13.0625 C 0 10.15625 2.421875 7.777344 5.382812 7.777344 "/>
<path style=" stroke:none;fill-rule:evenodd;fill:rgb(73.333333%,73.333333%,73.333333%);fill-opacity:1;" d="M 0 28.898438 L 89.949219 28.898438 L 89.949219 26.121094 L 0 26.121094 L 0 28.898438 "/>
<path style=" stroke:none;fill-rule:evenodd;fill:rgb(0.784314%,53.333333%,81.960784%);fill-opacity:1;" d="M 5.382812 7.777344 L 84.566406 7.777344 C 87.527344 7.777344 89.949219 10.15625 89.949219 13.0625 L 89.949219 26.882812 L 0 26.882812 L 0 13.0625 C 0 10.15625 2.421875 7.777344 5.382812 7.777344 "/>
<path style=" stroke:none;fill-rule:evenodd;fill:rgb(0.784314%,43.137255%,66.27451%);fill-opacity:1;" d="M 9.542969 7.777344 L 18.742188 7.777344 L 18.742188 12.640625 C 18.742188 15.128906 16.675781 17.15625 14.144531 17.15625 C 11.609375 17.15625 9.542969 15.128906 9.542969 12.640625 Z M 24.957031 7.777344 L 34.160156 7.777344 L 34.160156 12.640625 C 34.160156 15.128906 32.089844 17.15625 29.558594 17.15625 C 27.027344 17.15625 24.957031 15.128906 24.957031 12.640625 Z M 40.375 7.777344 L 49.574219 7.777344 L 49.574219 12.640625 C 49.574219 15.128906 47.507812 17.15625 44.972656 17.15625 C 42.441406 17.15625 40.375 15.128906 40.375 12.640625 Z M 55.789062 7.777344 L 64.988281 7.777344 L 64.988281 12.640625 C 64.988281 15.128906 62.921875 17.15625 60.390625 17.15625 C 57.859375 17.15625 55.789062 15.128906 55.789062 12.640625 Z M 71.207031 7.777344 L 80.40625 7.777344 L 80.40625 12.640625 C 80.40625 15.128906 78.335938 17.15625 75.804688 17.15625 C 73.273438 17.15625 71.207031 15.128906 71.207031 12.640625 L 71.207031 7.777344 "/>
<path style=" stroke:none;fill-rule:evenodd;fill:rgb(14.901961%,19.607843%,21.960784%);fill-opacity:1;" d="M 14.144531 0 C 15.777344 0 17.113281 1.3125 17.113281 2.917969 L 17.113281 12.640625 C 17.113281 14.242188 15.777344 15.554688 14.144531 15.554688 C 12.507812 15.554688 11.171875 14.242188 11.171875 12.640625 L 11.171875 2.917969 C 11.171875 1.3125 12.507812 0 14.144531 0 "/>
<path style=" stroke:none;fill-rule:evenodd;fill:rgb(14.901961%,19.607843%,21.960784%);fill-opacity:1;" d="M 29.558594 0 C 31.191406 0 32.53125 1.3125 32.53125 2.917969 L 32.53125 12.640625 C 32.53125 14.242188 31.191406 15.554688 29.558594 15.554688 C 27.925781 15.554688 26.585938 14.242188 26.585938 12.640625 L 26.585938 2.917969 C 26.585938 1.3125 27.925781 0 29.558594 0 "/>
<path style=" stroke:none;fill-rule:evenodd;fill:rgb(14.901961%,19.607843%,21.960784%);fill-opacity:1;" d="M 44.972656 0 C 46.609375 0 47.945312 1.3125 47.945312 2.917969 L 47.945312 12.640625 C 47.945312 14.242188 46.609375 15.554688 44.972656 15.554688 C 43.339844 15.554688 42.003906 14.242188 42.003906 12.640625 L 42.003906 2.917969 C 42.003906 1.3125 43.339844 0 44.972656 0 "/>
<path style=" stroke:none;fill-rule:evenodd;fill:rgb(14.901961%,19.607843%,21.960784%);fill-opacity:1;" d="M 60.390625 0 C 62.023438 0 63.359375 1.3125 63.359375 2.917969 L 63.359375 12.640625 C 63.359375 14.242188 62.023438 15.554688 60.390625 15.554688 C 58.753906 15.554688 57.417969 14.242188 57.417969 12.640625 L 57.417969 2.917969 C 57.417969 1.3125 58.753906 0 60.390625 0 "/>
<path style=" stroke:none;fill-rule:evenodd;fill:rgb(14.901961%,19.607843%,21.960784%);fill-opacity:1;" d="M 75.804688 0 C 77.4375 0 78.777344 1.3125 78.777344 2.917969 L 78.777344 12.640625 C 78.777344 14.242188 77.4375 15.554688 75.804688 15.554688 C 74.171875 15.554688 72.835938 14.242188 72.835938 12.640625 L 72.835938 2.917969 C 72.835938 1.3125 74.171875 0 75.804688 0 "/>
<path style=" stroke:none;fill-rule:evenodd;fill:rgb(14.901961%,19.607843%,21.960784%);fill-opacity:1;" d="M 38.375 44.382812 L 51.585938 44.382812 L 51.585938 32.898438 L 38.375 32.898438 L 38.375 44.382812 "/>
<path style=" stroke:none;fill-rule:evenodd;fill:rgb(14.901961%,19.607843%,21.960784%);fill-opacity:1;" d="M 55.660156 44.382812 L 68.867188 44.382812 L 68.867188 32.898438 L 55.660156 32.898438 L 55.660156 44.382812 "/>
<path style=" stroke:none;fill-rule:evenodd;fill:rgb(14.901961%,19.607843%,21.960784%);fill-opacity:1;" d="M 72.9375 44.382812 L 86.144531 44.382812 L 86.144531 32.898438 L 72.9375 32.898438 L 72.9375 44.382812 "/>
<path style=" stroke:none;fill-rule:evenodd;fill:rgb(14.901961%,19.607843%,21.960784%);fill-opacity:1;" d="M 3.804688 60.1875 L 17.011719 60.1875 L 17.011719 48.703125 L 3.804688 48.703125 L 3.804688 60.1875 "/>
<path style=" stroke:none;fill-rule:evenodd;fill:rgb(14.901961%,19.607843%,21.960784%);fill-opacity:1;" d="M 21.09375 60.1875 L 34.300781 60.1875 L 34.300781 48.703125 L 21.09375 48.703125 L 21.09375 60.1875 "/>
<path style=" stroke:none;fill-rule:evenodd;fill:rgb(14.901961%,19.607843%,21.960784%);fill-opacity:1;" d="M 38.375 60.1875 L 51.585938 60.1875 L 51.585938 48.703125 L 38.375 48.703125 L 38.375 60.1875 "/>
<path style=" stroke:none;fill-rule:evenodd;fill:rgb(14.901961%,19.607843%,21.960784%);fill-opacity:1;" d="M 55.660156 60.1875 L 68.867188 60.1875 L 68.867188 48.703125 L 55.660156 48.703125 L 55.660156 60.1875 "/>
<path style=" stroke:none;fill-rule:evenodd;fill:rgb(14.901961%,19.607843%,21.960784%);fill-opacity:1;" d="M 72.9375 60.1875 L 86.144531 60.1875 L 86.144531 48.703125 L 72.9375 48.703125 L 72.9375 60.1875 "/>
<path style=" stroke:none;fill-rule:evenodd;fill:rgb(14.901961%,19.607843%,21.960784%);fill-opacity:1;" d="M 3.804688 75.996094 L 17.011719 75.996094 L 17.011719 64.511719 L 3.804688 64.511719 L 3.804688 75.996094 "/>
<path style=" stroke:none;fill-rule:evenodd;fill:rgb(14.901961%,19.607843%,21.960784%);fill-opacity:1;" d="M 21.09375 75.996094 L 34.300781 75.996094 L 34.300781 64.511719 L 21.09375 64.511719 L 21.09375 75.996094 "/>
<path style=" stroke:none;fill-rule:evenodd;fill:rgb(82.745098%,18.431373%,18.431373%);fill-opacity:1;" d="M 38.375 75.996094 L 51.585938 75.996094 L 51.585938 64.511719 L 38.375 64.511719 L 38.375 75.996094 "/>
<path style=" stroke:none;fill-rule:evenodd;fill:rgb(14.901961%,19.607843%,21.960784%);fill-opacity:1;" d="M 55.660156 75.996094 L 68.867188 75.996094 L 68.867188 64.511719 L 55.660156 64.511719 L 55.660156 75.996094 "/>
<path style=" stroke:none;fill-rule:evenodd;fill:rgb(14.901961%,19.607843%,21.960784%);fill-opacity:1;" d="M 72.9375 75.996094 L 86.144531 75.996094 L 86.144531 64.511719 L 72.9375 64.511719 L 72.9375 75.996094 "/>
<path style=" stroke:none;fill-rule:evenodd;fill:rgb(14.901961%,19.607843%,21.960784%);fill-opacity:1;" d="M 3.804688 91.796875 L 17.011719 91.796875 L 17.011719 80.3125 L 3.804688 80.3125 L 3.804688 91.796875 "/>
<path style=" stroke:none;fill-rule:evenodd;fill:rgb(14.901961%,19.607843%,21.960784%);fill-opacity:1;" d="M 21.09375 91.796875 L 34.300781 91.796875 L 34.300781 80.3125 L 21.09375 80.3125 L 21.09375 91.796875 "/>
<path style=" stroke:none;fill-rule:evenodd;fill:rgb(14.901961%,19.607843%,21.960784%);fill-opacity:1;" d="M 38.375 91.796875 L 51.585938 91.796875 L 51.585938 80.3125 L 38.375 80.3125 L 38.375 91.796875 "/>
</g>
</svg>
