<svg id="Layer_1" enable-background="new 0 0 256 256" height="512" viewBox="0 0 256 256" width="512" xmlns="http://www.w3.org/2000/svg"><path d="m106.485 154.717v-124.456c0-12.426-10.074-22.5-22.5-22.5s-22.5 10.074-22.5 22.5v124.457c-16.006 8.192-26.97 24.836-26.97 44.052 0 27.321 22.148 49.47 49.47 49.47s49.47-22.148 49.47-49.47c0-19.216-10.964-35.861-26.97-44.053z" fill="#a4c9ff"/><path d="m97.697 168.249c-.729-.329-1.212-1.036-1.212-1.836v-10.134-125.603c0-6.883-5.384-12.786-12.266-12.912-7.011-.128-12.734 5.516-12.734 12.498v126.018 10.137c0 .798-.482 1.504-1.21 1.832-12.49 5.632-20.932 18.701-19.627 33.535 1.427 16.221 14.654 29.212 30.896 30.37 19.554 1.394 35.911-14.12 35.911-33.383 0-13.572-8.123-25.275-19.758-30.522z" fill="#e0ebfc"/><circle cx="83.985" cy="198.77" fill="#a4c9ff" r="33.47"/><path d="m83.985 250.239c-28.38 0-51.47-23.089-51.47-51.47 0-19.003 10.301-36.231 26.97-45.26v-123.248c0-13.51 10.991-24.5 24.5-24.5s24.5 10.99 24.5 24.5v123.249c16.669 9.028 26.97 26.257 26.97 45.26 0 28.38-23.09 51.469-51.47 51.469zm0-240.478c-11.304 0-20.5 9.196-20.5 20.5v124.456c0 .751-.42 1.438-1.089 1.78-15.964 8.171-25.881 24.368-25.881 42.272 0 26.175 21.295 47.47 47.47 47.47s47.47-21.295 47.47-47.47c0-17.904-9.917-34.102-25.881-42.272-.668-.342-1.089-1.029-1.089-1.78v-124.456c0-11.304-9.196-20.5-20.5-20.5z" fill="#3762cc"/><path d="m97.697 168.249c-.729-.329-1.212-1.036-1.212-1.836v-10.134-67.04h-25v67.039 10.137c0 .798-.482 1.504-1.21 1.832-12.49 5.632-20.932 18.701-19.627 33.535 1.427 16.221 14.654 29.212 30.896 30.37 19.554 1.394 35.911-14.12 35.911-33.383 0-13.57-8.123-25.273-19.758-30.52z" fill="#f9a7a7"/><g fill="#f9cfcf"><path d="m110.219 48.597h-20.234c-3.314 0-6-2.686-6-6 0-3.314 2.686-6 6-6h20.234c3.314 0 6 2.686 6 6 0 3.314-2.686 6-6 6z"/><path d="m110.219 78.597h-20.234c-3.314 0-6-2.686-6-6 0-3.314 2.686-6 6-6h20.234c3.314 0 6 2.686 6 6 0 3.314-2.686 6-6 6z"/><path d="m110.219 110.597h-20.234c-3.314 0-6-2.686-6-6 0-3.314 2.686-6 6-6h20.234c3.314 0 6 2.686 6 6 0 3.314-2.686 6-6 6z"/><path d="m110.219 142.597h-20.234c-3.314 0-6-2.686-6-6 0-3.314 2.686-6 6-6h20.234c3.314 0 6 2.686 6 6 0 3.314-2.686 6-6 6z"/></g><path d="m187.346 99.458c-.059-.617-.148-1.223-.24-1.829h.009c-3.604-29.947-25.337-46.34-30.902-50.082-.791-.532-1.804-.532-2.594 0-5.565 3.741-27.298 20.134-30.902 50.082h.045c-.259 1.71-.439 3.447-.439 5.232 0 18.709 14.593 33.874 32.594 33.874s32.594-15.165 32.594-33.874c-.001-1.148-.058-2.283-.165-3.403z" fill="#a4c9ff"/><path d="m221.348 169.828c-.049-.514-.124-1.02-.2-1.524h.008c-3.004-24.956-21.114-38.617-25.752-41.735-.659-.443-1.503-.443-2.162 0-4.637 3.118-22.748 16.779-25.752 41.735h.037c-.215 1.425-.366 2.872-.366 4.36 0 15.591 12.161 28.229 27.161 28.229 15.001 0 27.161-12.638 27.161-28.229.002-.957-.045-1.903-.135-2.836z" fill="#a4c9ff"/></svg>