<svg id="Layer_1" enable-background="new 0 0 512 512" height="512" viewBox="0 0 512 512" width="512" xmlns="http://www.w3.org/2000/svg"><g><g><g><g><g><g><path d="m449.333 368h-64c-8.837 0-16-7.163-16-16v-240h96v240c0 8.837-7.163 16-16 16z" fill="#5ad7ff"/></g></g></g></g><g><g><g><g><path d="m369.333 112v16h32c8.837 0 16 7.163 16 16v208c0 8.837-7.163 16-16 16h48c8.837 0 16-7.163 16-16v-240z" fill="#23aae6"/></g></g></g></g><g><g><g><g><g><path d="m369.333 304v48c0 8.837 7.163 16 16 16h64c8.837 0 16-7.163 16-16v-48z" fill="#ffd205"/></g></g></g></g><g><g><g><g><path d="m417.333 304v48c0 8.837-7.163 16-16 16h48c8.837 0 16-7.163 16-16v-48z" fill="#faa019"/></g></g></g></g></g><g><g><g><g><path d="m481.333 80h-128c-8.837 0-16 7.163-16 16 0 8.837 7.163 16 16 16h128c8.837 0 16-7.163 16-16 0-8.837-7.163-16-16-16z" fill="#5ad7ff"/></g></g></g></g><g><g><g><g><path d="m465.333 32h-96c-8.837 0-16 7.163-16 16 0 8.837 7.163 16 16 16h96c8.837 0 16-7.163 16-16 0-8.837-7.163-16-16-16z" fill="#5ad7ff"/></g></g></g></g><g><g><g><g><path d="m385.333 64h64v16h-64z" fill="#23aae6"/></g></g></g></g><g><g><g><g><path d="m433.333 400h-32c-8.837 0-16-7.163-16-16v-16h64v16c0 8.837-7.163 16-16 16z" fill="#faa019"/></g></g></g></g><g><g><g><g><path d="m417.333 480c-6.955-10.433-10.667-22.691-10.667-35.23v-44.77h21.334v44.77c0 12.539-3.711 24.797-10.667 35.23z" fill="#d7e6f0"/></g></g></g></g><g><g><g><g><path d="m406.667 400v13.333c5.891 0 10.667 4.776 10.667 10.667v56c6.954-10.433 10.666-22.691 10.666-35.229v-44.771z" fill="#a5c3dc"/></g></g></g></g><g><g><g><g><path d="m393.334 352c-4.418 0-8-3.582-8-8v-192c0-4.418 3.582-8 8-8s8 3.582 8 8v192c0 4.418-3.582 8-8 8z" fill="#a5ffff"/></g></g></g></g><g><g><g><g><path d="m393.333 352c-4.418 0-8-3.582-8-8v-40h16v40c0 4.418-3.581 8-8 8z" fill="#ffff50"/></g></g></g></g></g><g><g><g><g><g><path d="m230.667 152c-4.418 0-8-3.582-8-8s3.582-8 8-8c13.233 0 24-10.766 24-24s-10.767-24-24-24c-4.418 0-8-3.582-8-8s3.582-8 8-8c22.056 0 40 17.944 40 40s-17.945 40-40 40z" fill="#463c4b"/></g></g></g></g><g><g><g><g><path d="m102.667 152c-4.418 0-8-3.582-8-8s3.582-8 8-8c13.233 0 24-10.766 24-24s-10.767-24-24-24c-4.418 0-8-3.582-8-8s3.582-8 8-8c22.056 0 40 17.944 40 40s-17.945 40-40 40z" fill="#463c4b"/></g></g></g></g><g><g><g><g><path d="m318.667 416h-272c-17.673 0-32-14.327-32-32v-208h336v208c0 17.673-14.327 32-32 32z" fill="#a5c3dc"/></g></g></g></g><g><g><g><g><path d="m270.667 416h-224c-17.673 0-32-14.327-32-32v-208h288v208c0 17.673-14.327 32-32 32z" fill="#d7e6f0"/></g></g></g></g><g><g><g><g><path d="m318.667 112h-272c-17.673 0-32 14.327-32 32v32h336v-32c0-17.673-14.327-32-32-32z" fill="#faa019"/></g></g></g></g><g><g><g><g><path d="m270.667 112h-224c-17.673 0-32 14.327-32 32v32h288v-32c0-17.673-14.327-32-32-32z" fill="#ffd205"/></g></g></g></g><g><g><g><g><path d="m102.667 152c-22.056 0-40-17.944-40-40s17.944-40 40-40c4.418 0 8 3.582 8 8s-3.582 8-8 8c-13.233 0-24 10.766-24 24s10.767 24 24 24c4.418 0 8 3.582 8 8s-3.582 8-8 8z" fill="#555a6e"/></g></g></g></g><g><g><g><g><path d="m230.667 152c-22.056 0-40-17.944-40-40s17.944-40 40-40c4.418 0 8 3.582 8 8s-3.582 8-8 8c-13.233 0-24 10.766-24 24s10.767 24 24 24c4.418 0 8 3.582 8 8s-3.582 8-8 8z" fill="#555a6e"/></g></g></g></g></g><g><g><g><g><circle cx="126.667" cy="232" fill="#a5c3dc" r="24"/></g></g></g></g><g><g><g><g><circle cx="190.667" cy="232" fill="#a5c3dc" r="24"/></g></g></g></g><g><g><g><g><circle cx="254.667" cy="232" fill="#a5c3dc" r="24"/></g></g></g></g><g><g><g><g><circle cx="62.667" cy="296" fill="#a5c3dc" r="24"/></g></g></g></g><g><g><g><g><circle cx="126.667" cy="296" fill="#a5c3dc" r="24"/></g></g></g></g><g><g><g><g><circle cx="190.667" cy="296" fill="#a5c3dc" r="24"/></g></g></g></g><g><g><g><g><circle cx="254.667" cy="296" fill="#a5c3dc" r="24"/></g></g></g></g><g><g><g><g><circle cx="62.667" cy="360" fill="#a5c3dc" r="24"/></g></g></g></g><g><g><g><g><circle cx="126.667" cy="360" fill="#a5c3dc" r="24"/></g></g></g></g><g><g><g><g><circle cx="190.667" cy="360" fill="#a5c3dc" r="24"/></g></g></g></g></g></svg>